<svg xmlns="http://www.w3.org/2000/svg" xmlns:xlink="http://www.w3.org/1999/xlink" version="1.1" enable-background="new 0 0 100 100" xml:space="preserve" width="100" height="125" style=""><rect id="backgroundrect" width="100%" height="100%" x="0" y="0" fill="none" stroke="none"/><g class="currentLayer" style=""><title>Layer 1</title><g id="svg_1" class="selected" fill="#ffffff" fill-opacity="1" stroke="#ffffff" stroke-opacity="1"><path fill="#ffffff" d="M31,59v26.4H12.7V59H31 M33.7,56.3H10v31.8h23.7V56.3z" id="svg_2" fill-opacity="1" stroke="#ffffff" stroke-opacity="1"/><path fill="#ffffff" d="M60.7,36.1v52H39.3v-52H60.7" id="svg_3" fill-opacity="1" stroke="#ffffff" stroke-opacity="1"/><path fill="#ffffff" d="M87.3,50.9v34.5H69V50.9H87.3 M90,48.2H66.3v39.9H90V48.2z" id="svg_4" fill-opacity="1" stroke="#ffffff" stroke-opacity="1"/><polygon fill="#ffffff" points="43.4,32.9 50.1,29.3 56.8,32.9 55.6,25.4 61,20.1 53.5,19 50.1,12.2 46.8,19 39.3,20.1 44.7,25.4     " id="svg_5" fill-opacity="1" stroke="#ffffff" stroke-opacity="1"/><g id="svg_6" fill="#ffffff" fill-opacity="1" stroke="#ffffff" stroke-opacity="1"><path fill="#ffffff" d="M78.3,27l2.2,4.4c0.2,0.4,0.6,0.7,1,0.7l4.8,0.7l-3.5,3.4c-0.3,0.3-0.5,0.7-0.4,1.2l0.8,4.8L79,39.9    c-0.2-0.1-0.4-0.2-0.6-0.2c-0.2,0-0.4,0.1-0.6,0.2l-4.3,2.3l0.8-4.8c0.1-0.4-0.1-0.9-0.4-1.2l-3.5-3.4l4.8-0.7    c0.4-0.1,0.8-0.3,1-0.7L78.3,27 M78.4,24L75,30.8l-7.5,1.1l5.4,5.3l-1.3,7.5l6.7-3.5l6.7,3.5l-1.3-7.5l5.4-5.3l-7.5-1.1L78.4,24z" id="svg_7" fill-opacity="1" stroke="#ffffff" stroke-opacity="1"/><path fill="#ffffff" d="M21.4,34.9l2.2,4.4c0.2,0.4,0.6,0.7,1,0.7l4.8,0.7l-3.5,3.4c-0.3,0.3-0.5,0.7-0.4,1.2l0.8,4.8L22,47.9    c-0.2-0.1-0.4-0.2-0.6-0.2c-0.2,0-0.4,0.1-0.6,0.2l-4.3,2.3l0.8-4.8c0.1-0.4-0.1-0.9-0.4-1.2l-3.5-3.4l4.8-0.7    c0.4-0.1,0.8-0.3,1-0.7L21.4,34.9 M21.4,31.9l-3.4,6.8l-7.5,1.1l5.4,5.3l-1.3,7.5l6.7-3.5l6.7,3.5l-1.3-7.5l5.4-5.3l-7.5-1.1    L21.4,31.9z" id="svg_8" fill-opacity="1" stroke="#ffffff" stroke-opacity="1"/></g></g></g></svg>