<svg xmlns="http://www.w3.org/2000/svg" xmlns:xlink="http://www.w3.org/1999/xlink" version="1.0" enable-background="new 0 0 100 100" xml:space="preserve" width="100" height="100"><rect id="backgroundrect" width="100%" height="100%" x="0" y="0" fill="none" stroke="none" style="" class=""/><g class="currentLayer" style=""><title>Layer 1</title><path d="M84.0898,64.0681c-2.8174-1.9803-6.1065-2.8536-9.3334-2.7131c-3.084,0.1342-6.0803-1.043-8.2632-3.2258L42.0436,33.6795  c-2.1714-2.1715-3.3517-5.1489-3.2268-8.2173c0.1955-4.8048-1.8644-9.6382-5.9404-12.7366  c-3.5286-2.6823-7.8359-3.5787-11.8614-2.8581c-1.5347,0.2747-1.9853,2.2645-0.7267,3.1847l6.4306,4.7015  c1.0942,0.7999,1.5509,2.2151,1.1241,3.5017c-0.0108,0.0327-0.0219,0.0652-0.0329,0.0978c-0.9665,2.8542-2.789,5.3471-5.2157,7.134  c-0.0232,0.0172-0.0466,0.0342-0.07,0.0513c-1.0992,0.8036-2.5919,0.8043-3.691,0.0006l-6.4306-4.7015  c-1.2586-0.9201-3.0178,0.1128-2.8141,1.6585c0.5344,4.0545,2.6952,7.8869,6.3215,10.4357  c2.8174,1.9802,6.1064,2.8536,9.3334,2.7131c3.084-0.1341,6.0804,1.043,8.2632,3.2258l24.4497,24.4497  c2.1714,2.1714,3.3516,5.1488,3.2267,8.2172c-0.1957,4.8049,1.8643,9.6382,5.9402,12.7366  c3.5287,2.6823,7.8359,3.5788,11.8615,2.858c1.5347-0.2747,1.9854-2.2644,0.7267-3.1846l-6.4306-4.7015  c-1.0955-0.801-1.5516-2.2186-1.1227-3.5062c0.0104-0.0313,0.0209-0.0623,0.0314-0.0934c0.9666-2.8543,2.7891-5.347,5.2156-7.134  c0.0234-0.0172,0.0467-0.0343,0.0701-0.0514c1.0992-0.8035,2.5918-0.8042,3.691-0.0005l6.4306,4.7014  c1.2585,0.9202,3.0179-0.1129,2.8141-1.6584C89.8768,70.4492,87.7161,66.6169,84.0898,64.0681z" id="svg_1" class="selected" fill="#ffffff" fill-opacity="1"/></g></svg>