<svg xmlns="http://www.w3.org/2000/svg" width="100" height="100" style=""><rect id="backgroundrect" width="100%" height="100%" x="0" y="0" fill="none" stroke="none" style="" class=""/><g class="currentLayer" style=""><title>Layer 1</title><path d="m50 7.438c-3.418 10.505-7.02 21.563-10.625 32.656-11.332-.02-23.595.029-34.375.031 9.328 6.749 19.382 14.09 27.781 20.19-3.487 10.769-7.268 22.453-10.594 32.688 8.908-6.501 18.371-13.335 27.813-20.19 9.974 7.239 18.681 13.578 27.781 20.19-3.456-10.576-6.984-21.565-10.594-32.688 9.2-6.637 18.926-13.746 27.813-20.19-11.501-.001-23.897.002-34.34 0m-10.656-22.688c2.779 8.593 5.615 17.18 8.375 25.781l27.06 0-21.906 15.906c3.089 9.387 5.41 16.601 8.375 25.75-7.289-5.321-14.636-10.56-21.906-15.906l0-51.53" id="svg_1" class="selected" fill="#ffffff" fill-opacity="1"/></g></svg>