<?xml version="1.0" encoding="UTF-8"?><svg xmlns="http://www.w3.org/2000/svg" width="100%" height="100%"><defs><font id="web" horiz-adv-x="1210"><!--



NOTICE: This font software is the valuable property 
of Webtype LLC, The Font Bureau, Webtype and/or its 
suppliers and its use by you is covered under the terms 
of the Web Font license agreement between you and Webtype 
LLC. You may ONLY use this font software with the licensed 
web site. Except as specifically permitted by the license, 
you may not copy this font software. If you have any 
questions, please contact Webtype.com. 

For more information, please visit http://www.webtype.com/store/license/?id=23

Licensed to: thenextweb.com

Serial number: SH-1196
--><font-face font-family="" units-per-em="2048" panose-1="2 0 6 3 0 0 0 2 0 4" ascent="2025" descent="-569" alphabetic="0"/><missing-glyph horiz-adv-x="1024" d="M0 1434H1024V0H0V1434ZM102 102H922V1331H102V102Z"/><glyph unicode=" " horiz-adv-x="514"/><glyph unicode="!" horiz-adv-x="694" d="M262 453L195 1516H510L442 453H262ZM211 0V256H494V0H211Z"/><glyph unicode="&quot;" horiz-adv-x="895" d="M561 979L526 1380V1516H750V1380L715 979H561ZM180 979L145 1380V1516H369V1380L334 979H180Z"/><glyph unicode="#" horiz-adv-x="1516" d="M213 0L297 408H68V598H338L403 918H156V1108H444L530 1516H758L674 1108H969L1055 1516H1282L1196 1108H1448V918H1157L1090 598H1360V408H1051L965 0H737L821 408H526L440 0H213ZM565 598H862L928 918H633L565 598Z"/><glyph unicode="$" horiz-adv-x="1368" d="M602 -14Q502 -5 424 24T284 96T178 191T100 297L279 418Q311 372 345 332T418 262T505 210T610 180V684Q521 707 437 737T288 815T183 935T143 1112Q143 1200 175 1274T266 1403T411 1491T602 1532V1677H766V1528Q851 1518 917 1493T1034 1433T1124 1354T1194 1264L1020 1128Q995 1166 970 1198T913 1256T845 1299T760 1325V870Q860 844 950 811T1107 727T1213 601T1253 418Q1253 332 1224 258T1134 126T982 32T766 -14V-190H602V-14ZM760 178Q818 184 865 198T946 237T998 302T1016 395Q1016 447 998 486T947 554T867 604T760 643V178ZM610 1333Q551 1328 508 1312T437 1269T395 1209T381 1135Q381 1087 397 1053T442 992T514 946T610 911V1333Z"/><glyph unicode="%" horiz-adv-x="2154" d="M485 580Q395 580 324 614T204 711T130 862T104 1057Q104 1167 131 1256T207 1408T328 1505T487 1540Q575 1540 645 1506T765 1410T840 1259T866 1061Q866 954 840 866T766 714T646 615T485 580ZM1669 -20Q1578 -20 1507 14T1388 111T1314 262T1288 457Q1288 567 1315 656T1391 807T1512 904T1671 938Q1759 938 1829 905T1948 809T2023 658T2050 461Q2050 354 2024 266T1949 114T1829 15T1669 -20ZM514 0L1419 1516H1640L735 0H514ZM1669 158Q1712 158 1743 179T1796 240T1827 334T1837 459Q1837 602 1796 680T1669 758Q1625 758 1593 737T1540 678T1509 584T1499 461Q1499 318 1541 238T1669 158ZM487 760Q529 760 560 781T612 841T643 935T653 1059Q653 1202 612 1280T485 1358Q442 1358 411 1337T358 1278T327 1184T317 1061Q317 917 359 839T487 760Z"/><glyph unicode="&amp;" horiz-adv-x="1503" d="M578 -29Q453 -29 356 1T191 85T89 213T53 375Q53 463 81 532T157 656T268 753T403 831Q355 919 330 1002T305 1171Q305 1243 329 1310T402 1430T526 1513T702 1544Q796 1544 864 1518T977 1449T1043 1348T1065 1229Q1065 1147 1036 1082T957 965T841 870T702 791Q725 756 753 720T813 643Q870 571 920 513T1018 408Q1066 480 1096 572T1141 770H1364Q1345 637 1302 513T1188 285Q1262 235 1332 213T1479 190V-20Q1412 -19 1353 -11T1238 13T1132 53T1030 113Q944 47 835 9T578 -29ZM616 930Q664 957 706 985T780 1046T830 1118T848 1208Q848 1236 839 1262T811 1307T767 1338T707 1350Q631 1350 586 1311T541 1186Q541 1123 559 1061T616 930ZM600 176Q675 176 739 191T862 244Q806 296 749 362T623 514Q587 559 557 599T498 680Q413 626 361 559T309 408Q309 349 329 305T386 233T478 190T600 176Z"/><glyph unicode="'" horiz-adv-x="514" d="M180 979L145 1380V1516H369V1380L334 979H180Z"/><glyph unicode="(" horiz-adv-x="821" d="M625 -420Q500 -315 403 -203T240 31T140 288T106 573Q106 724 140 859T240 1116T403 1350T625 1567L741 1442Q657 1358 589 1261T473 1054T399 825T373 573Q373 442 399 321T475 89T593 -119T748 -303L625 -420Z"/><glyph unicode=")" horiz-adv-x="821" d="M74 -303Q159 -218 228 -120T347 89T422 320T449 573Q449 704 423 824T348 1054T232 1260T80 1442L197 1567Q322 1462 418 1350T581 1116T681 859T715 573Q715 423 681 289T581 32T419 -203T197 -420L74 -303Z"/><glyph unicode="*" horiz-adv-x="1040" d="M369 662L223 745L424 1036L72 1012V1171L426 1147L223 1438L369 1524L520 1202L672 1524L817 1438L616 1147L969 1171V1012L616 1036L817 745L674 662L520 981L369 662Z"/><glyph unicode="+" horiz-adv-x="1315" d="M553 168V598H137V801H553V1231H762V801H1180V598H762V168H553Z"/><glyph unicode="," horiz-adv-x="565" d="M178 -229L250 0H141V266H424V35L295 -229H178Z"/><glyph unicode="-" horiz-adv-x="731" d="M113 553V733H618V553H113Z"/><glyph unicode="." horiz-adv-x="565" d="M141 0V266H424V0H141Z"/><glyph unicode="/" horiz-adv-x="1235" d="M47 0L928 1516H1188L307 0H47Z"/><glyph unicode="0" horiz-adv-x="1389" d="M696 -29Q553 -29 441 27T252 187T135 435T94 758Q94 935 134 1080T252 1328T441 1487T696 1544Q839 1544 950 1488T1137 1328T1254 1080T1294 758Q1294 581 1254 436T1138 187T950 28T696 -29ZM696 197Q860 197 949 335T1038 758Q1038 900 1015 1005T947 1179T840 1281T696 1315Q529 1315 440 1179T350 758Q350 616 374 511T442 336T551 232T696 197Z"/><glyph unicode="1" horiz-adv-x="918" d="M88 0V225H367V1255Q339 1241 305 1229T235 1207T162 1192T92 1186V1417Q180 1420 252 1444T375 1516H616V225H864V0H88Z"/><glyph unicode="2" horiz-adv-x="1235" d="M72 0V33Q72 115 90 196T159 362T304 534T547 719Q634 775 695 819T795 905T852 992T870 1096Q870 1149 853 1190T805 1258T731 1300T633 1315Q533 1315 441 1257T276 1092L86 1223Q132 1293 188 1352T314 1454T465 1520T645 1544Q756 1544 844 1513T994 1426T1087 1290T1120 1114Q1120 1045 1105 983T1050 861T941 738T762 606Q671 549 603 498T486 399T409 309T371 225H1128V0H72Z"/><glyph unicode="3" horiz-adv-x="1249" d="M600 -29Q419 -29 277 38T37 238L215 381Q254 330 298 295T390 238T490 207T596 197Q666 197 722 210T819 252T881 325T903 430Q903 502 877 551T799 632T667 678T481 692H412V901H487Q598 901 670 917T785 962T845 1031T862 1122Q862 1167 848 1202T803 1262T723 1300T602 1313Q505 1313 413 1275T252 1167L102 1327Q149 1376 207 1416T333 1484T474 1527T627 1542Q749 1542 840 1514T992 1435T1083 1314T1114 1159Q1114 1022 1042 931T836 805Q1003 771 1080 672T1157 420Q1157 318 1118 235T1005 94T830 3T600 -29Z"/><glyph unicode="4" horiz-adv-x="1325" d="M786 0V311H49V512L739 1516H1034V532H1290V311H1034V0H786ZM326 532H786V1210H782L326 532Z"/><glyph unicode="5" horiz-adv-x="1225" d="M592 -29Q504 -29 426 -13T278 34T151 106T47 201L205 369Q243 333 284 302T371 247T469 210T580 197Q664 197 725 220T826 283T885 380T905 502Q905 577 885 633T826 725T732 780T608 799Q514 799 438 766T301 653L131 709L190 1516H1063L1044 1290H389L358 899Q380 923 410 943T480 979T568 1003T676 1012Q790 1012 879 976T1031 873T1126 715T1159 510Q1159 392 1120 293T1008 123T829 11T592 -29Z"/><glyph unicode="6" horiz-adv-x="1303" d="M680 -29Q549 -29 442 18T257 161T137 398T94 731Q94 932 146 1084T288 1338T497 1492T750 1544Q814 1544 871 1534T978 1507T1069 1467T1141 1421L1018 1233Q965 1270 897 1295T739 1321Q653 1321 583 1285T461 1181T380 1017T346 801Q385 835 429 865T522 917T627 952T745 965Q853 965 942 934T1095 843T1194 694T1229 487Q1229 373 1186 278T1068 115T893 9T680 -29ZM692 188Q761 188 815 208T907 266T965 357T985 479Q985 538 970 588T922 674T833 731T698 752Q644 752 592 740T494 706T411 658T348 602Q356 492 384 414T456 285T561 212T692 188Z"/><glyph unicode="7" horiz-adv-x="1112" d="M197 0L801 1290H55V1516H1065V1307L459 0H197Z"/><glyph unicode="8" horiz-adv-x="1280" d="M641 -35Q503 -35 395 -5T213 81T99 213T59 381Q59 456 86 518T161 630T276 722T422 797Q354 830 300 865T207 944T149 1042T129 1167Q129 1239 162 1307T259 1430T420 1517T641 1550Q769 1550 865 1517T1024 1430T1119 1308T1151 1167Q1151 1042 1074 954T858 803Q941 767 1008 728T1122 640T1195 528T1221 381Q1221 290 1182 214T1068 83T886 -4T641 -35ZM657 891Q721 921 767 949T844 1007T888 1071T903 1149Q903 1185 888 1219T842 1281T761 1324T641 1341Q573 1341 524 1326T442 1285T393 1225T377 1153Q377 1106 395 1070T448 1004T535 946T657 891ZM641 172Q715 172 775 187T877 231T942 301T965 395Q965 446 944 487T880 565T773 634T623 702Q548 667 491 634T394 563T335 485T315 395Q315 344 338 303T403 233T506 188T641 172Z"/><glyph unicode="9" horiz-adv-x="1303" d="M553 -29Q489 -29 432 -19T325 9T234 48T162 94L285 283Q337 245 405 218T563 190Q649 190 719 227T841 332T921 498T956 715Q918 680 874 651T781 599T675 564T557 551Q449 551 360 582T208 673T109 822T74 1028Q74 1142 117 1237T235 1400T410 1506T623 1544Q753 1544 861 1497T1046 1354T1165 1117T1208 784Q1208 584 1156 432T1014 178T806 23T553 -29ZM604 764Q658 764 710 776T809 809T892 857T954 913Q946 1023 919 1100T846 1227T742 1300T610 1323Q471 1323 394 1248T317 1036Q317 977 332 927T380 841T469 785T604 764Z"/><glyph unicode=":" horiz-adv-x="584" d="M152 819V1087H432V819H152ZM152 0V266H432V0H152Z"/><glyph unicode=";" horiz-adv-x="584" d="M184 -229L256 0H152V266H432V39L301 -229H184ZM152 819V1087H432V819H152Z"/><glyph unicode="&lt;" horiz-adv-x="1315" d="M1200 119L117 590V737L1200 1208V995L391 664L1200 332V119Z"/><glyph unicode="=" horiz-adv-x="1315" d="M139 809V995H1174V809H139ZM139 342V528H1174V342H139Z"/><glyph unicode="&gt;" horiz-adv-x="1315" d="M123 119V332L932 664L123 995V1208L1206 737V590L123 119Z"/><glyph unicode="?" horiz-adv-x="1171" d="M434 449Q429 486 429 520T428 592Q428 704 480 780T629 911Q679 940 715 964T776 1016T811 1075T823 1153Q823 1230 762 1274T588 1319Q531 1319 479 1304T381 1264T297 1208T231 1143L70 1288Q114 1342 168 1388T289 1469T435 1524T610 1544Q724 1544 811 1517T956 1440T1045 1322T1075 1171Q1075 1098 1056 1043T1003 946T923 870T825 809Q780 784 749 763T698 720T666 672T649 615T642 543T641 449H434ZM397 0V256H678V0H397Z"/><glyph unicode="@" horiz-adv-x="1778" d="M877 -29Q699 -29 554 29T307 191T148 440T92 756Q92 928 151 1072T315 1322T568 1485T891 1544Q1067 1544 1213 1488T1464 1330T1627 1087T1686 778Q1686 673 1660 588T1584 442T1465 348T1307 315Q1194 315 1131 354T1044 469Q981 406 903 370T717 334Q653 334 601 354T510 414T451 514T430 653Q430 775 461 876T548 1050T677 1163T838 1204Q885 1204 922 1196T988 1173T1041 1140T1085 1098L1100 1188H1296L1200 580Q1189 510 1222 470T1333 430Q1382 430 1424 452T1498 517T1547 624T1565 772Q1565 917 1516 1037T1378 1244T1165 1379T891 1427Q740 1427 617 1378T405 1239T268 1027T219 756Q219 607 266 483T401 270T610 130T883 80Q1001 80 1097 106T1282 186L1337 98Q1244 38 1127 5T877 -29ZM788 487Q847 487 901 512T1006 588L1063 950Q1021 998 977 1019T870 1040Q813 1040 769 1010T693 928T646 811T629 674Q629 578 668 533T788 487Z"/><glyph unicode="A" horiz-adv-x="1427" d="M51 0L588 1522H840L1376 0H1114L991 360H416L291 0H51ZM494 586H915L709 1200H705L494 586Z"/><glyph unicode="B" horiz-adv-x="1438" d="M172 0V1516H745Q859 1516 956 1496T1123 1432T1234 1315T1274 1139Q1274 1060 1254 1000T1197 897T1112 828T1006 791V786Q1076 773 1133 746T1232 675T1296 567T1319 416Q1319 311 1279 233T1167 104T997 26T782 0H172ZM424 221H756Q919 221 993 275T1067 442Q1067 503 1045 545T979 615T873 654T729 666H424V221ZM424 883H721Q873 883 950 931T1028 1090Q1028 1144 1011 1182T956 1244T862 1279T725 1290H424V883Z"/><glyph unicode="C" horiz-adv-x="1468" d="M764 -29Q618 -29 496 21T286 170T148 418T98 762Q98 952 148 1098T288 1343T499 1493T764 1544Q896 1544 995 1510T1164 1413T1280 1264T1352 1073L1108 1004Q1087 1079 1059 1135T989 1230T893 1288T762 1307Q666 1307 591 1271T463 1165T384 994T356 764Q356 629 384 525T465 349T594 242T766 205Q840 205 898 224T1000 282T1077 383T1130 530L1374 475Q1346 362 1297 269T1173 110T997 8T764 -29Z"/><glyph unicode="D" horiz-adv-x="1491" d="M172 0V1516H604Q782 1516 927 1473T1176 1339T1335 1105T1391 764Q1391 561 1334 417T1174 180T925 44T604 0H172ZM428 229H627Q757 229 852 258T1011 352T1104 518T1135 764Q1135 900 1104 997T1010 1157T850 1249T623 1278H428V229Z"/><glyph unicode="E" horiz-adv-x="1272" d="M172 0V1516H1151V1278H428V901H958V674H428V233H1192V0H172Z"/><glyph unicode="F" horiz-adv-x="1184" d="M172 0V1516H1126V1278H428V872H934V645H428V0H172Z"/><glyph unicode="G" horiz-adv-x="1526" d="M745 -29Q582 -29 461 30T259 194T138 444T98 764Q98 946 145 1090T280 1336T491 1490T766 1544Q874 1544 966 1518T1134 1435T1264 1287T1354 1067L1116 1004Q1091 1089 1058 1147T983 1240T886 1291T764 1307Q719 1307 672 1297T579 1263T493 1198T422 1099T374 958T356 770Q356 611 391 502T484 327T618 231T774 201Q849 201 911 223T1020 288T1094 395T1128 543H823V750H1374V0H1163V219H1159Q1141 178 1107 135T1022 55T902 -5T745 -29Z"/><glyph unicode="H" horiz-adv-x="1544" d="M172 0V1516H428V911H1116V1516H1372V0H1116V674H428V0H172Z"/><glyph unicode="I" horiz-adv-x="635" d="M188 0V1516H446V0H188Z"/><glyph unicode="J" horiz-adv-x="1065" d="M449 -29Q312 -29 213 17T37 145L197 303Q217 283 242 264T296 229T360 205T432 195Q485 195 527 207T598 249T643 329T659 455V1516H915V420Q915 314 884 231T793 90T647 2T449 -29Z"/><glyph unicode="K" horiz-adv-x="1430" d="M172 0V1516H428V811L1024 1516H1327L811 932L1391 0H1098L643 735L428 498V0H172Z"/><glyph unicode="L" horiz-adv-x="1184" d="M172 0V1516H428V233H1126V0H172Z"/><glyph unicode="M" horiz-adv-x="1829" d="M172 0V1516H510L915 313H920L1313 1516H1657V0H1409V1130H1405Q1388 1052 1365 977T1315 821L1020 0H793L500 821Q486 862 475 896T452 967T431 1044T408 1141H403V0H172Z"/><glyph unicode="N" horiz-adv-x="1563" d="M172 0V1516H432L1149 434H1153V1516H1391V0H1157L414 1104H410V0H172Z"/><glyph unicode="O" horiz-adv-x="1565" d="M784 -29Q640 -29 515 22T297 173T151 420T98 758Q98 949 151 1096T296 1342T514 1493T784 1544Q928 1544 1052 1493T1269 1343T1413 1096T1466 758Q1466 567 1414 420T1269 173T1053 22T784 -29ZM784 203Q879 203 957 239T1091 346T1177 520T1208 758Q1208 891 1178 994T1092 1167T958 1273T784 1309Q687 1309 608 1273T473 1167T387 994T356 758Q356 624 386 521T473 347T608 240T784 203Z"/><glyph unicode="P" horiz-adv-x="1358" d="M172 0V1516H702Q825 1516 931 1493T1117 1415T1241 1271T1286 1051Q1286 913 1238 822T1107 676T918 598T694 575H426V0H172ZM426 799H707Q791 799 853 812T955 855T1014 930T1034 1042Q1034 1168 955 1225T705 1282H426V799Z"/><glyph unicode="Q" horiz-adv-x="1565" d="M1116 -395Q996 -395 907 -366T759 -286T670 -165T637 -10Q522 11 423 71T252 230T138 460T96 758Q96 949 151 1096T301 1342T520 1493T782 1544Q919 1544 1042 1493T1260 1343T1409 1096T1464 758Q1464 588 1421 453T1301 219T1121 61T897 -16Q909 -72 934 -104T1000 -152T1095 -173T1221 -178H1325V-395H1116ZM782 199Q877 199 955 236T1089 344T1175 520T1206 758Q1206 891 1176 994T1090 1167T956 1273T782 1309Q685 1309 606 1273T471 1167T385 994T354 758Q354 624 384 520T471 345T606 236T782 199Z"/><glyph unicode="R" horiz-adv-x="1415" d="M172 0V1516H715Q850 1516 956 1489T1134 1405T1245 1263T1284 1061Q1284 970 1261 899T1195 775T1090 686T948 631L1305 0H1030L690 598H424V0H172ZM424 821H705Q785 821 846 832T948 870T1011 942T1032 1055Q1032 1120 1011 1163T949 1233T846 1271T702 1282H424V821Z"/><glyph unicode="S" horiz-adv-x="1380" d="M702 -29Q589 -29 493 -1T320 77T186 199T92 356L295 463Q363 329 466 264T713 199Q782 199 839 210T936 246T999 307T1022 395Q1022 444 1004 481T944 550T838 607T678 662Q605 683 538 705T411 753T304 813T222 889T169 988T150 1116Q150 1213 187 1292T293 1427T457 1513T668 1544Q780 1544 869 1518T1029 1448T1149 1345T1235 1219L1049 1090Q980 1204 885 1257T666 1311Q539 1311 470 1267T401 1139Q401 1086 422 1049T486 982T597 929T758 877Q865 845 959 809T1123 721T1233 594T1274 414Q1274 321 1236 240T1124 100T944 6T702 -29Z"/><glyph unicode="T" horiz-adv-x="1300" d="M522 0V1278H55V1516H1245V1278H778V0H522Z"/><glyph unicode="U" horiz-adv-x="1477" d="M739 -25Q583 -25 472 17T289 135T185 317T152 553V1516H408V575Q408 488 427 420T487 305T591 232T741 207Q828 207 890 231T993 302T1053 417T1073 573V1516H1325V555Q1325 426 1289 319T1179 136T996 17T739 -25Z"/><glyph unicode="V" horiz-adv-x="1397" d="M578 -6L51 1516H311L702 334H707L1104 1516H1346L819 -6H578Z"/><glyph unicode="W" horiz-adv-x="1933" d="M463 0L59 1516H317L510 731Q533 640 553 555T590 379H594Q609 467 629 552T672 729L854 1516H1100L1288 725Q1300 677 1311 635T1332 551T1351 469T1368 379H1372Q1381 428 1389 469T1407 549T1425 630T1446 719L1634 1516H1874L1475 0H1251L979 1161H975L688 0H463Z"/><glyph unicode="X" horiz-adv-x="1427" d="M66 0L569 805L119 1516H412L727 1008L1032 1516H1298L856 805L1362 0H1079L705 600L334 0H66Z"/><glyph unicode="Y" horiz-adv-x="1354" d="M547 0V653L31 1516H301L680 870L1057 1516H1323L805 653V0H547Z"/><glyph unicode="Z" horiz-adv-x="1321" d="M72 0V178L909 1300H127V1516H1231V1331L403 209H1231V0H72Z"/><glyph unicode="[" horiz-adv-x="862" d="M158 -410V1516H788V1335H412V-229H788V-410H158Z"/><glyph unicode="\" horiz-adv-x="1194" d="M907 0L27 1516H287L1167 0H907Z"/><glyph unicode="]" horiz-adv-x="862" d="M74 -410V-229H451V1333H74V1516H705V-410H74Z"/><glyph unicode="^" horiz-adv-x="1315" d="M588 1516H735L1206 678H993L662 1260L330 678H117L588 1516Z"/><glyph unicode="_" horiz-adv-x="1024" d="M0 -297V-115H1024V-297H0Z"/><glyph unicode="`" horiz-adv-x="1024" d="M240 1542H512L705 1202H539L240 1542Z"/><glyph unicode="a" horiz-adv-x="1157" d="M379 -16Q313 -16 257 2T160 55T95 142T72 262Q72 350 111 423T235 554T455 651T780 713V745Q780 827 737 864T602 901Q545 901 494 889T397 855T311 808T236 754L113 911Q156 951 212 987T334 1050T476 1092T637 1108Q746 1108 821 1083T942 1007T1008 884T1028 715V266Q1028 167 1035 105T1059 0H805Q800 17 796 32T788 63T782 98T780 139Q697 55 599 20T379 -16ZM471 178Q568 178 644 212T780 303V543Q553 512 436 456T319 309Q319 244 360 211T471 178Z"/><glyph unicode="b" horiz-adv-x="1251" d="M705 -16Q617 -16 535 18T393 121V0H141V1516H393V944Q420 976 455 1006T533 1058T627 1094T739 1108Q832 1108 911 1073T1047 968T1136 792T1169 545Q1169 404 1136 299T1041 123T895 19T705 -16ZM649 184Q792 184 855 272T918 543Q918 716 849 804T657 893Q618 893 581 882T509 851T445 808T393 756V319Q444 253 512 219T649 184Z"/><glyph unicode="c" horiz-adv-x="1116" d="M588 -23Q493 -23 402 9T240 111T124 287T80 543Q80 647 102 729T161 874T250 981T359 1054T479 1095T602 1108Q703 1108 777 1082T904 1012T992 911T1053 791L840 715Q808 808 749 852T598 897Q544 897 496 878T412 817T355 708T334 543Q334 368 401 276T594 184Q637 184 673 192T741 221T799 278T848 373L1057 297Q1028 232 988 174T892 72T761 3T588 -23Z"/><glyph unicode="d" horiz-adv-x="1251" d="M512 -16Q419 -16 340 18T204 121T115 295T82 541Q82 682 115 788T210 966T356 1072T547 1108Q635 1108 716 1074T858 971V1516H1110V266Q1110 167 1117 105T1143 0H883Q872 23 865 64T858 147Q828 112 793 83T716 31T624 -3T512 -16ZM594 190Q633 190 671 201T743 232T806 276T858 328V764Q807 830 739 864T602 899Q531 899 480 876T397 808T349 694T334 535Q334 362 403 276T594 190Z"/><glyph unicode="e" horiz-adv-x="1155" d="M604 -23Q502 -23 408 9T240 110T124 286T80 543Q80 646 102 728T164 873T254 980T363 1053T481 1095T598 1108Q659 1108 718 1095T830 1054T928 981T1005 870T1056 718T1075 520V461H332Q336 387 359 334T421 246T511 195T623 178Q676 178 718 186T797 211T865 251T928 305L1061 174Q976 80 864 29T604 -23ZM844 649Q833 774 772 838T596 903Q550 903 507 890T429 846T370 767T336 649H844Z"/><glyph unicode="f" horiz-adv-x="766" d="M236 0V887H47V1087H236V1198Q236 1266 252 1325T308 1428T416 1497T588 1522Q606 1522 629 1521T673 1517T712 1514T737 1511V1317Q725 1320 699 1322T651 1325Q617 1325 588 1320T536 1298T500 1255T487 1184V1087H725V887H487V0H236Z"/><glyph unicode="g" horiz-adv-x="1202" d="M551 -422Q410 -422 311 -403T148 -348T56 -264T27 -156Q27 -74 74 -16T205 74Q121 117 121 207Q121 238 132 266T164 318T210 365T268 406Q185 458 141 538T96 719Q96 803 127 874T218 997T361 1078T553 1108Q665 1108 748 1076T887 993Q913 1014 945 1032T1014 1064T1086 1088T1157 1100V895Q1120 895 1071 889T967 866Q985 837 995 800T1006 719Q1006 634 975 563T886 441T743 361T553 332Q530 332 511 333T475 338T439 345T401 354Q377 340 362 323T346 285Q346 253 372 239T471 219L664 207Q784 199 869 179T1008 122T1087 34T1112 -90Q1112 -174 1072 -236T958 -339T781 -401T551 -422ZM557 506Q660 506 718 558T776 711Q776 813 720 866T555 920Q450 920 392 866T334 711Q334 611 393 559T557 506ZM590 -240Q659 -240 714 -231T808 -206T868 -166T889 -113Q889 -84 877 -64T834 -29T749 -6T612 8L424 20Q407 20 391 22T358 27Q304 2 281 -34T258 -113Q258 -185 340 -212T590 -240Z"/><glyph unicode="h" horiz-adv-x="1235" d="M141 0V1516H395V940Q421 968 459 997T546 1051T657 1092T793 1108Q864 1108 922 1087T1021 1025T1084 922T1106 780V0H852V717Q852 808 813 850T690 893Q607 893 536 854T395 752V0H141Z"/><glyph unicode="i" horiz-adv-x="557" d="M152 0V1087H406V0H152ZM150 1276V1495H408V1276H150Z"/><glyph unicode="j" horiz-adv-x="557" d="M102 -414Q84 -414 61 -413T14 -409T-27 -405T-51 -401V-225Q-37 -228 -14 -230T31 -233Q91 -233 121 -202T152 -96V1087H406V-135Q406 -191 394 -242T349 -331T256 -391T102 -414ZM150 1276V1495H408V1276H150Z"/><glyph unicode="k" horiz-adv-x="1153" d="M141 0V1516H393V612L805 1087H1081L727 690L1112 0H848L567 504L393 313V0H141Z"/><glyph unicode="l" horiz-adv-x="557" d="M152 0V1516H406V0H152Z"/><glyph unicode="m" horiz-adv-x="1892" d="M141 0V1087H393V938Q424 972 463 1003T548 1057T649 1094T766 1108Q834 1108 883 1095T966 1059T1024 1003T1063 930Q1095 965 1135 997T1223 1054T1326 1093T1444 1108Q1527 1108 1587 1084T1685 1017T1742 914T1761 780V0H1509V717Q1509 762 1502 795T1478 850T1431 882T1356 893Q1279 893 1213 854T1077 752V0H825V717Q825 762 818 795T794 850T747 882T672 893Q634 893 599 883T530 854T462 809T393 752V0H141Z"/><glyph unicode="n" horiz-adv-x="1235" d="M143 0V1087H395V913Q426 949 465 983T552 1046T658 1091T784 1108Q859 1108 918 1089T1019 1030T1083 932T1106 791V0H854V719Q854 809 816 854T690 899Q607 899 536 861T395 758V0H143Z"/><glyph unicode="o" horiz-adv-x="1221" d="M610 -23Q511 -23 416 9T246 111T126 287T80 543Q80 693 125 800T245 976T415 1076T610 1108Q709 1108 804 1076T974 976T1095 801T1141 543Q1141 444 1120 363T1062 219T975 111T865 36T741 -8T610 -23ZM610 188Q747 188 817 281T887 543Q887 619 871 683T820 793T734 866T610 893Q542 893 490 869T404 800T352 690T334 543Q334 465 350 400T400 288T486 215T610 188Z"/><glyph unicode="p" horiz-adv-x="1251" d="M141 -410V1087H393V944Q420 976 455 1006T533 1058T627 1094T739 1108Q832 1108 911 1073T1047 968T1136 792T1169 545Q1169 404 1136 299T1041 123T895 19T705 -16Q617 -16 535 18T393 121V-410H141ZM649 184Q792 184 855 272T918 543Q918 716 849 804T657 893Q618 893 581 882T509 851T445 808T393 756V319Q444 253 512 219T649 184Z"/><glyph unicode="q" horiz-adv-x="1251" d="M858 -410V147Q828 112 793 83T716 31T624 -3T512 -16Q419 -16 340 18T204 121T115 295T82 541Q82 682 115 788T210 966T356 1072T547 1108Q635 1108 716 1074T858 971V1087H1110V-410H858ZM594 190Q633 190 671 201T743 232T806 276T858 328V764Q807 830 739 864T602 899Q531 899 480 876T397 808T349 694T334 535Q334 362 403 276T594 190Z"/><glyph unicode="r" horiz-adv-x="844" d="M141 0V1087H393V909H397Q422 950 457 986T540 1049T649 1092T788 1108H805L797 877Q792 878 783 878T764 879T744 880T729 881Q668 881 618 868T527 829T453 768T393 688V0H141Z"/><glyph unicode="s" horiz-adv-x="1071" d="M539 -23Q464 -23 394 -10T261 26T148 80T59 150L197 303Q228 277 265 254T346 213T438 185T539 174Q640 174 698 202T756 299Q756 332 737 354T684 393T607 421T514 444Q467 455 419 467T325 496T239 538T169 596T122 678T104 788Q104 860 133 919T216 1020T343 1085T508 1108Q586 1108 649 1098T766 1067T866 1019T954 954L834 791Q804 815 766 836T687 874T605 899T526 909Q474 909 439 901T382 877T351 842T342 799Q342 766 361 744T412 705T488 678T580 655Q626 645 675 633T770 605T856 564T927 506T975 424T993 313Q993 227 957 164T859 60T715 -2T539 -23Z"/><glyph unicode="t" horiz-adv-x="825" d="M563 -14Q459 -14 394 5T292 61T241 155T227 285V887H39V1087H227V1466H479V1087H760V887H479V348Q479 304 486 273T512 222T561 193T639 184Q667 184 698 188T748 199V0Q738 -2 717 -4T670 -9T615 -12T563 -14Z"/><glyph unicode="u" horiz-adv-x="1235" d="M442 -20Q371 -20 313 1T214 63T151 165T129 307V1087H383V367Q383 276 422 233T545 190Q628 190 699 229T840 332V1087H1094V0H840V147Q814 120 776 91T689 37T578 -4T442 -20Z"/><glyph unicode="v" horiz-adv-x="1079" d="M412 -2L18 1087H283L549 285H553L817 1087H1061L668 -2H412Z"/><glyph unicode="w" horiz-adv-x="1563" d="M348 0L25 1087H281L399 637Q411 591 421 551T442 470T461 387T481 291H485Q497 346 507 390T527 474T547 554T571 641L686 1087H891L1012 633Q1025 588 1035 548T1055 469T1074 386T1096 291H1100Q1112 344 1122 386T1142 468T1162 545T1186 629L1309 1087H1538L1214 0H979L782 756H778L582 0H348Z"/><glyph unicode="x" horiz-adv-x="1092" d="M39 0L418 561L66 1087H334L561 739L780 1087H1040L684 561L1061 0H793L543 381L297 0H39Z"/><glyph unicode="y" horiz-adv-x="1120" d="M256 -422Q159 -422 99 -411T-2 -389L55 -186Q78 -193 126 -201T240 -209Q307 -209 346 -181T412 -86L442 -6L25 1087H287L567 295H571L850 1087H1100L637 -119Q610 -190 578 -246T501 -342T397 -401T256 -422Z"/><glyph unicode="z" horiz-adv-x="1065" d="M70 0V145L649 887H113V1087H965V936L383 195H999V0H70Z"/><glyph unicode="{" horiz-adv-x="852" d="M567 -410Q496 -410 444 -390T357 -331T305 -238T287 -117V217Q287 292 273 340T231 415T160 453T59 463V643Q117 643 159 653T230 690T273 766T287 889V1223Q287 1290 304 1344T356 1436T443 1495T567 1516H791V1335H700Q617 1335 579 1295T541 1176V860Q541 785 530 733T496 646T441 590T367 555V551Q408 537 440 516T495 460T529 373T541 246V-70Q541 -148 579 -188T700 -229H791V-410H567Z"/><glyph unicode="|" horiz-adv-x="772" d="M262 -410V1516H510V-410H262Z"/><glyph unicode="}" horiz-adv-x="852" d="M61 -410V-229H152Q235 -229 273 -189T311 -70V266Q311 341 322 390T356 470T411 519T485 551V555Q444 569 412 587T357 636T323 716T311 840V1176Q311 1254 275 1296T156 1339H66L61 1516H305Q376 1516 425 1499T506 1447T551 1361T565 1243V889Q565 814 579 766T621 691T692 653T793 643V463Q735 463 693 453T622 416T579 340T565 217V-137Q565 -204 551 -255T506 -340T426 -392T305 -410H61Z"/><glyph unicode="~" horiz-adv-x="1315" d="M934 537Q894 538 845 548T742 574T635 606T533 639T446 664T381 676Q341 679 315 660T283 584L129 606Q138 680 159 732T213 817T288 864T381 877Q422 876 472 865T576 839T682 806T783 773T870 747T934 735Q954 734 971 738T1001 753T1022 783T1034 831L1186 813Q1177 738 1156 685T1102 599T1027 550T934 537Z"/><glyph unicode=" " horiz-adv-x="514"/><glyph unicode="¡" horiz-adv-x="694" d="M184 0L252 1063H432L500 0H184ZM201 1260V1516H483V1260H201Z"/><glyph unicode="¢" horiz-adv-x="1124" d="M348 35Q291 66 242 112T157 222T101 365T80 543Q80 644 102 725T161 869T250 977T359 1051T479 1094T602 1108Q616 1108 629 1108T655 1106L713 1307H852L786 1079Q841 1060 883 1030T957 962T1014 881T1057 791L854 715Q831 781 798 820T721 879L524 186Q540 181 557 180T594 178Q636 178 674 187T746 218T809 277T862 373L1061 297Q1032 232 991 174T893 72T761 3T588 -23Q559 -23 531 -20T473 -10L401 -264H260L348 35ZM602 901H598Q544 901 494 883T403 823T339 713T315 543Q315 434 341 361T414 242L602 901Z"/><glyph unicode="£" horiz-adv-x="1346" d="M182 690V858H367Q329 923 304 990T279 1139Q279 1226 309 1300T395 1428T531 1513T711 1544Q832 1544 914 1510T1049 1421T1129 1294T1169 1149L942 1106Q936 1154 922 1195T882 1267T815 1315T717 1333Q669 1333 633 1319T573 1279T537 1218T524 1141Q524 1103 533 1068T556 998T590 929T629 858H987V690H709Q729 639 740 583T752 459Q752 400 742 347T711 246Q757 217 804 197T903 176Q953 176 986 188T1039 226T1068 296T1079 401H1303Q1303 315 1286 237T1227 100T1116 6T942 -29Q889 -29 843 -19T755 8T678 48T610 96Q551 37 473 4T295 -29Q249 -29 204 -16T122 25T64 95T41 197Q41 257 61 303T117 382T202 432T309 449Q372 449 425 428T530 375Q532 390 532 405T532 438Q532 509 512 571T463 690H182ZM479 209Q436 246 396 271T311 297Q263 297 236 271T209 203Q209 163 236 137T309 111Q366 111 408 136T479 209Z"/><glyph unicode="¤" horiz-adv-x="1152" d="M1056 392L940 284L740 500Q668 452 572 452Q480 452 408 500L208 284L92 392L300 608Q272 648 262 686T252 780Q252 828 262 870T300 952L92 1168L208 1276L408 1060Q480 1108 572 1108Q668 1108 740 1060L944 1276L1060 1156L852 952Q880 912 890 872T900 780Q900 684 848 608L1056 392ZM748 780Q748 860 698 910T572 960Q496 960 448 910T400 780Q400 700 450 652T572 604Q652 604 700 652T748 780Z"/><glyph unicode="¥" horiz-adv-x="1343" d="M543 0V199H166V369H543V512H166V682H537L39 1516H307L674 891L1040 1516H1305L803 682H1180V512H799V369H1180V199H799V0H543Z"/><glyph unicode="¦" horiz-adv-x="772" d="M262 678V1516H510V678H262ZM262 -410V428H510V-410H262Z"/><glyph unicode="§" horiz-adv-x="1149" d="M573 -410Q463 -410 387 -385T260 -319T180 -226T135 -117L324 -39Q337 -82 356 -116T404 -173T471 -208T563 -221Q613 -221 646 -210T700 -180T728 -135T737 -80Q737 -46 722 -17T676 43T596 104T483 172Q401 220 332 263T214 355T137 461T109 592Q109 651 129 701T181 791T253 863T332 918Q287 952 257 985T207 1051T179 1122T170 1202Q170 1270 197 1332T276 1441T403 1516T575 1544Q687 1544 765 1520T894 1454T976 1360T1022 1251L823 1167Q809 1210 787 1246T734 1307T667 1347T586 1362Q536 1362 501 1350T444 1318T411 1270T401 1214Q401 1180 417 1151T467 1092T549 1031T664 963Q748 916 816 872T934 780T1011 674T1038 543Q1038 484 1018 434T967 342T896 269T817 215Q861 180 890 148T936 82T961 11T969 -68Q969 -136 943 -198T867 -307T743 -382T573 -410ZM680 309Q751 346 789 393T827 496Q827 536 815 567T771 630T681 700T532 791L467 825Q401 790 362 743T322 639Q322 599 334 568T378 504T468 435T616 344Q633 335 649 326T680 309Z"/><glyph unicode="¨" horiz-adv-x="1065" d="M213 1444H442V1196H213V1444ZM618 1444H848V1196H618V1444Z"/><glyph unicode="©" horiz-adv-x="1772" d="M885 -29Q774 -29 673 -2T485 76T328 198T207 356T129 545T102 756Q102 866 129 967T207 1155T329 1315T488 1437T677 1516T889 1544Q1054 1544 1196 1484T1444 1317T1609 1068T1669 760Q1669 650 1642 549T1564 360T1442 200T1284 78T1096 -1T885 -29ZM889 90Q1028 90 1147 141T1353 282T1490 493T1540 756Q1540 896 1490 1018T1351 1230T1144 1373T885 1425Q745 1425 626 1374T418 1234T281 1023T231 760Q231 619 281 497T420 285T629 142T889 90ZM881 317Q800 317 733 347T618 436T544 577T518 766Q518 868 543 950T616 1090T732 1179T885 1210Q955 1210 1009 1191T1105 1137T1173 1051T1214 938L1067 899Q1044 981 1004 1026T887 1071Q839 1071 801 1049T737 988T696 892T682 766Q682 694 696 638T736 542T800 482T887 461Q962 461 1006 506T1073 645L1147 625Q1161 621 1174 618T1199 612T1217 608T1225 606Q1207 540 1179 487T1108 396T1010 338T881 317Z"/><glyph unicode="ª" horiz-adv-x="889" d="M311 745Q263 745 223 758T153 796T107 857T90 942Q90 1004 117 1055T205 1146T359 1213T586 1255V1280Q586 1334 558 1363T467 1393Q388 1393 326 1366T207 1290L119 1395Q150 1425 187 1451T270 1495T370 1525T492 1536Q636 1536 702 1465T768 1260V948Q768 880 773 836T793 760H604Q589 810 586 866Q529 809 462 777T311 745ZM375 889Q443 889 494 914T586 977V1149Q494 1137 434 1120T337 1081T287 1032T272 975Q272 932 300 911T375 889Z"/><glyph unicode="«" horiz-adv-x="1204" d="M391 0L66 545L391 1087H637L324 545L637 0H391ZM874 0L547 545L874 1087H1118L803 545L1118 0H874Z"/><glyph unicode="¬" horiz-adv-x="1536" d="M1116 352V728H212V920H1296V352H1116Z"/><glyph unicode="­" horiz-adv-x="731" d="M113 553V733H618V553H113Z"/><glyph unicode="®" horiz-adv-x="1098" d="M549 598Q449 598 363 634T213 735T113 885T76 1073Q76 1173 113 1259T214 1410T364 1511T551 1548Q651 1548 737 1512T886 1411T986 1261T1022 1075Q1022 974 986 887T885 736T735 635T549 598ZM551 676Q634 676 705 706T828 790T910 916T940 1073Q940 1157 910 1229T828 1355T704 1439T549 1470Q466 1470 395 1440T272 1356T190 1231T160 1075Q160 991 190 918T272 791T396 707T551 676ZM367 1343H561Q654 1343 705 1304T756 1184Q756 1121 728 1087T653 1036L766 823H657L553 1022H471V823H367V1343ZM555 1102Q603 1102 628 1119T653 1178Q653 1216 628 1233T553 1251H471V1102H555Z"/><glyph unicode="¯" horiz-adv-x="1024" d="M193 1382H831V1196H193V1382Z"/><glyph unicode="°" horiz-adv-x="840" d="M420 920Q352 920 295 943T195 1008T128 1106T104 1231Q104 1298 128 1355T194 1454T294 1518T420 1542Q487 1542 545 1519T645 1455T711 1357T735 1233Q735 1165 711 1108T645 1009T545 944T420 920ZM420 1051Q457 1051 487 1064T540 1100T575 1157T588 1231Q588 1271 576 1304T541 1361T488 1398T420 1411Q383 1411 353 1398T300 1362T265 1305T252 1231Q252 1190 264 1157T299 1101T352 1064T420 1051Z"/><glyph unicode="±" horiz-adv-x="1315" d="M137 250H557V631H137V829H557V1262H760V829H1180V631H760V250H1180V59H137V250Z"/><glyph unicode="²" horiz-adv-x="952" d="M125 602Q125 654 135 706T177 811T267 919T422 1034Q476 1067 512 1092T569 1140T600 1188T610 1245Q610 1299 579 1330T485 1362Q429 1362 374 1326T274 1206L129 1305Q195 1420 282 1478T492 1536Q570 1536 629 1516T729 1457T790 1366T811 1249Q811 1205 800 1164T760 1083T684 1003T563 922Q462 862 417 813T360 723H815V553H125V602Z"/><glyph unicode="³" horiz-adv-x="952" d="M471 537Q353 537 257 587T98 735L227 844Q254 805 282 779T340 736T399 714T457 707Q542 707 582 745T623 842Q623 915 572 951T399 987H330V1135H403Q459 1135 497 1143T559 1166T593 1204T604 1257Q604 1304 572 1334T471 1364Q418 1364 363 1339T252 1257L135 1380Q209 1458 298 1497T487 1536Q568 1536 628 1517T728 1463T789 1381T809 1278Q809 1209 773 1152T657 1069Q752 1040 794 980T836 838Q836 767 810 711T737 617T622 558T471 537Z"/><glyph unicode="´" horiz-adv-x="1024" d="M514 1542H784L487 1202H322L514 1542Z"/><glyph unicode="µ" horiz-adv-x="1245" d="M141 -410V1087H393V369Q393 278 431 232T557 186Q599 186 637 196T711 225T782 270T852 328V1087H1104V0H852V172Q823 141 790 112T718 58T635 17T541 -8Q496 -11 459 -5T393 25V-410H141Z"/><glyph unicode="¶" horiz-adv-x="1290" d="M602 -410V662Q360 667 232 774T104 1085Q104 1176 134 1254T224 1391T371 1482T573 1516H1153V-410H973V1321H782V-410H602Z"/><glyph unicode="·" horiz-adv-x="575" d="M141 541V807H434V541H141Z"/><glyph unicode="¸" horiz-adv-x="1024" d="M528 -408Q447 -408 374 -388T246 -332L297 -250Q343 -281 398 -296T506 -311Q629 -311 629 -231Q629 -199 609 -184T555 -168Q527 -168 505 -178T461 -205L389 -170L440 0H557L528 -100Q550 -86 580 -78T653 -70Q681 -70 707 -79T754 -106T787 -150T799 -211Q799 -259 778 -296T720 -358T634 -395T528 -408Z"/><glyph unicode="¹" horiz-adv-x="760" d="M143 717H317V1341Q282 1324 236 1314T145 1303V1454Q205 1456 250 1470T326 1516H524V717H680V551H143V717Z"/><glyph unicode="º" horiz-adv-x="924" d="M463 745Q392 745 325 767T204 838T119 961T86 1141Q86 1247 118 1322T204 1444T324 1514T463 1536Q533 1536 600 1514T720 1445T805 1322T838 1141Q838 1036 806 961T720 838T600 768T463 745ZM463 883Q510 883 545 902T603 955T639 1037T651 1141Q651 1193 640 1240T606 1322T548 1378T463 1399Q415 1399 380 1380T320 1326T284 1244T272 1141Q272 1088 283 1042T317 960T376 904T463 883Z"/><glyph unicode="»" horiz-adv-x="1204" d="M84 0L399 545L84 1087H330L657 545L330 0H84ZM567 0L881 545L567 1087H811L1137 545L811 0H567Z"/><glyph unicode="¼" horiz-adv-x="2064" d="M170 719H338V1309Q304 1296 263 1289T174 1282V1454Q242 1457 284 1470T358 1516H545V719H692V551H170V719ZM1602 213H1163V344L1591 967H1806V377H1960V213H1806V0H1602V213ZM1395 1516H1616L709 0H487L1395 1516ZM1612 367V735L1366 367H1612Z"/><glyph unicode="½" horiz-adv-x="2136" d="M1309 49Q1309 101 1320 152T1363 256T1454 364T1608 481Q1655 512 1689 536T1747 585T1781 634T1792 692Q1792 746 1760 777T1667 809Q1613 809 1559 773T1458 653L1313 752Q1379 867 1467 925T1675 983Q1751 983 1810 963T1911 904T1973 813T1995 696Q1995 652 1984 611T1945 530T1870 450T1751 369Q1655 312 1608 262T1550 170H2001V0H1309V49ZM1395 1516H1616L709 0H487L1395 1516ZM170 719H338V1309Q304 1296 263 1289T174 1282V1454Q242 1457 284 1470T358 1516H545V719H692V551H170V719Z"/><glyph unicode="¾" horiz-adv-x="2134" d="M471 537Q353 537 257 587T98 735L227 844Q254 805 282 779T340 736T399 714T457 707Q542 707 582 745T623 842Q623 915 572 951T399 987H330V1135H403Q459 1135 497 1143T559 1166T593 1204T604 1257Q604 1304 572 1334T471 1364Q418 1364 363 1339T252 1257L135 1380Q209 1458 298 1497T487 1536Q568 1536 628 1517T728 1463T789 1381T809 1278Q809 1209 773 1152T657 1069Q752 1040 794 980T836 838Q836 767 810 711T737 617T622 558T471 537ZM1671 213H1233V344L1661 967H1876V377H2030V213H1876V0H1671V213ZM1464 1516H1686L780 0H559L1464 1516ZM1681 367V735L1436 367H1681Z"/><glyph unicode="¿" horiz-adv-x="1171" d="M561 -29Q447 -29 360 -1T215 76T126 194T96 344Q96 417 115 472T169 570T248 645T346 707Q413 744 450 775T505 844T526 934T530 1067H737Q742 1030 742 996T743 924Q743 811 691 735T543 604Q493 575 457 551T396 499T360 440T348 362Q348 285 409 241T584 197Q641 197 693 212T790 252T873 308T940 373L1102 227Q1057 173 1003 127T882 46T735 -9T561 -29ZM494 1260V1516H774V1260H494Z"/><glyph unicode="À" horiz-adv-x="1427" d="M51 0L588 1522H840L1376 0H1114L991 360H416L291 0H51ZM494 586H915L709 1200H705L494 586ZM346 1945H618L811 1605H645L346 1945Z"/><glyph unicode="Á" horiz-adv-x="1427" d="M51 0L588 1522H840L1376 0H1114L991 360H416L291 0H51ZM494 586H915L709 1200H705L494 586ZM809 1945H1079L782 1605H617L809 1945Z"/><glyph unicode="Â" horiz-adv-x="1427" d="M51 0L588 1522H840L1376 0H1114L991 360H416L291 0H51ZM494 586H915L709 1200H705L494 586ZM625 1945H799L1063 1605H916L711 1777L506 1605H361L625 1945Z"/><glyph unicode="Ã" horiz-adv-x="1427" d="M51 0L588 1522H840L1376 0H1114L991 360H416L291 0H51ZM494 586H915L709 1200H705L494 586ZM868 1591Q817 1591 777 1609T701 1648T635 1688T571 1706Q528 1706 508 1681T487 1595H346Q346 1670 360 1724T402 1812T469 1863T559 1880Q610 1880 650 1862T726 1823T793 1783T858 1765Q900 1765 921 1790T942 1876H1083Q1083 1727 1026 1659T868 1591Z"/><glyph unicode="Ä" horiz-adv-x="1427" d="M51 0L588 1522H840L1376 0H1114L991 360H416L291 0H51ZM494 586H915L709 1200H705L494 586ZM393 1847H622V1599H393V1847ZM798 1847H1028V1599H798V1847Z"/><glyph unicode="Å" horiz-adv-x="1427" d="M575 1485Q543 1508 524 1546T504 1632Q504 1676 520 1714T564 1779T630 1823T713 1839Q758 1839 796 1823T863 1780T906 1714T922 1632Q922 1584 903 1547T852 1485L1376 0H1114L991 360H416L291 0H51L575 1485ZM918 588L709 1200H705L492 588H918ZM713 1526Q758 1526 785 1555T813 1632Q813 1677 786 1706T713 1735Q669 1735 641 1706T612 1632Q612 1584 640 1555T713 1526Z"/><glyph unicode="Æ" horiz-adv-x="2134" d="M41 0L903 1516H2011V1278H1288V901H1819V674H1288V233H2052V0H1034V426H539L299 0H41ZM666 651H1034V1303H1032L666 651Z"/><glyph unicode="Ç" horiz-adv-x="1468" d="M770 -408Q686 -408 614 -388T487 -332L537 -250Q583 -281 639 -296T748 -311Q870 -311 870 -231Q870 -199 851 -184T797 -168Q768 -168 745 -178T700 -205L629 -170L674 -25Q546 -10 440 48T259 206T142 445T100 762Q100 949 150 1094T289 1340T499 1492T764 1544Q896 1544 995 1510T1164 1413T1280 1264T1352 1073L1108 1006Q1087 1081 1059 1141T990 1242T893 1306T762 1329Q666 1329 591 1289T463 1176T384 998T356 764Q356 629 384 521T465 338T594 222T766 182Q841 182 899 204T1001 271T1078 380T1133 530L1374 475Q1347 364 1300 273T1180 117T1012 13T791 -29L770 -100Q792 -86 821 -78T893 -70Q922 -70 948 -79T995 -106T1028 -150T1040 -211Q1040 -259 1019 -296T962 -358T876 -395T770 -408Z"/><glyph unicode="È" horiz-adv-x="1272" d="M172 0V1516H1151V1278H428V901H958V674H428V233H1192V0H172ZM336 1945H608L801 1605H635L336 1945Z"/><glyph unicode="É" horiz-adv-x="1272" d="M707 1945H977L680 1605H515L707 1945ZM172 0V1516H1151V1278H428V901H958V674H428V233H1192V0H172Z"/><glyph unicode="Ê" horiz-adv-x="1272" d="M572 1945H746L1010 1605H863L658 1777L453 1605H308L572 1945ZM172 0V1516H1151V1278H428V901H958V674H428V233H1192V0H172Z"/><glyph unicode="Ë" horiz-adv-x="1272" d="M350 1847H579V1599H350V1847ZM755 1847H985V1599H755V1847ZM172 0V1516H1151V1278H428V901H958V674H428V233H1192V0H172Z"/><glyph unicode="Ì" horiz-adv-x="635" d="M188 0V1516H446V0H188ZM-38 1945H234L427 1605H261L-38 1945Z"/><glyph unicode="Í" horiz-adv-x="635" d="M188 0V1516H446V0H188ZM419 1945H689L392 1605H227L419 1945Z"/><glyph unicode="Î" horiz-adv-x="635" d="M188 0V1516H446V0H188ZM233 1945H407L671 1605H524L319 1777L114 1605H-31L233 1945Z"/><glyph unicode="Ï" horiz-adv-x="635" d="M188 0V1516H446V0H188ZM-1 1847H228V1599H-1V1847ZM404 1847H634V1599H404V1847Z"/><glyph unicode="Ð" horiz-adv-x="1491" d="M172 0V686H23V883H172V1516H604Q782 1516 927 1473T1176 1338T1335 1103T1391 758Q1391 558 1334 415T1174 179T925 44T604 0H172ZM426 227H627Q757 227 852 257T1011 352T1104 518T1135 764Q1135 900 1104 997T1010 1157T850 1249T623 1278H426V883H743V686H426V227Z"/><glyph unicode="Ñ" horiz-adv-x="1563" d="M172 0V1516H432L1149 434H1153V1516H1391V0H1157L414 1104H410V0H172ZM948 1591Q897 1591 857 1609T781 1648T715 1688T651 1706Q608 1706 588 1681T567 1595H426Q426 1670 440 1724T482 1812T549 1863T639 1880Q690 1880 730 1862T806 1823T873 1783T938 1765Q980 1765 1001 1790T1022 1876H1163Q1163 1727 1106 1659T948 1591Z"/><glyph unicode="Ò" horiz-adv-x="1565" d="M784 -29Q640 -29 515 22T297 173T151 420T98 758Q98 949 151 1096T296 1342T514 1493T784 1544Q928 1544 1052 1493T1269 1343T1413 1096T1466 758Q1466 567 1414 420T1269 173T1053 22T784 -29ZM784 203Q879 203 957 239T1091 346T1177 520T1208 758Q1208 891 1178 994T1092 1167T958 1273T784 1309Q687 1309 608 1273T473 1167T387 994T356 758Q356 624 386 521T473 347T608 240T784 203ZM443 1945H715L908 1605H742L443 1945Z"/><glyph unicode="Ó" horiz-adv-x="1565" d="M846 1945H1116L819 1605H654L846 1945ZM784 -29Q640 -29 515 22T297 173T151 420T98 758Q98 949 151 1096T296 1342T514 1493T784 1544Q928 1544 1052 1493T1269 1343T1413 1096T1466 758Q1466 567 1414 420T1269 173T1053 22T784 -29ZM784 203Q879 203 957 239T1091 346T1177 520T1208 758Q1208 891 1178 994T1092 1167T958 1273T784 1309Q687 1309 608 1273T473 1167T387 994T356 758Q356 624 386 521T473 347T608 240T784 203Z"/><glyph unicode="Ô" horiz-adv-x="1565" d="M694 1945H868L1132 1605H985L780 1777L575 1605H430L694 1945ZM784 -29Q640 -29 515 22T297 173T151 420T98 758Q98 949 151 1096T296 1342T514 1493T784 1544Q928 1544 1052 1493T1269 1343T1413 1096T1466 758Q1466 567 1414 420T1269 173T1053 22T784 -29ZM784 203Q879 203 957 239T1091 346T1177 520T1208 758Q1208 891 1178 994T1092 1167T958 1273T784 1309Q687 1309 608 1273T473 1167T387 994T356 758Q356 624 386 521T473 347T608 240T784 203Z"/><glyph unicode="Õ" horiz-adv-x="1565" d="M784 -29Q640 -29 515 22T297 173T151 420T98 758Q98 949 151 1096T296 1342T514 1493T784 1544Q928 1544 1052 1493T1269 1343T1413 1096T1466 758Q1466 567 1414 420T1269 173T1053 22T784 -29ZM784 203Q879 203 957 239T1091 346T1177 520T1208 758Q1208 891 1178 994T1092 1167T958 1273T784 1309Q687 1309 608 1273T473 1167T387 994T356 758Q356 624 386 521T473 347T608 240T784 203ZM934 1591Q883 1591 843 1609T767 1648T701 1688T637 1706Q594 1706 574 1681T553 1595H412Q412 1670 426 1724T468 1812T535 1863T625 1880Q676 1880 716 1862T792 1823T859 1783T924 1765Q966 1765 987 1790T1008 1876H1149Q1149 1727 1092 1659T934 1591Z"/><glyph unicode="Ö" horiz-adv-x="1565" d="M461 1847H690V1599H461V1847ZM866 1847H1096V1599H866V1847ZM784 -29Q640 -29 515 22T297 173T151 420T98 758Q98 949 151 1096T296 1342T514 1493T784 1544Q928 1544 1052 1493T1269 1343T1413 1096T1466 758Q1466 567 1414 420T1269 173T1053 22T784 -29ZM784 203Q879 203 957 239T1091 346T1177 520T1208 758Q1208 891 1178 994T1092 1167T958 1273T784 1309Q687 1309 608 1273T473 1167T387 994T356 758Q356 624 386 521T473 347T608 240T784 203Z"/><glyph unicode="×" horiz-adv-x="1315" d="M322 172L172 322L508 655L172 989L322 1137L655 803L989 1137L1137 989L805 657L1141 324L991 176L657 510L322 172Z"/><glyph unicode="Ø" horiz-adv-x="1565" d="M1317 1282Q1388 1185 1427 1054T1466 758Q1466 567 1414 420T1269 173T1053 22T784 -29Q664 -29 557 7T362 113L225 -51L96 49L248 231Q177 330 138 461T98 758Q98 949 151 1096T296 1342T514 1493T784 1544Q905 1544 1011 1509T1202 1403L1339 1567L1468 1466L1317 1282ZM508 299Q617 193 784 193Q880 193 959 231T1095 341T1183 518T1214 758Q1214 954 1149 1087L508 299ZM1055 1214Q946 1317 784 1317Q686 1317 606 1280T469 1172T381 996T350 758Q350 658 367 575T416 426L1055 1214Z"/><glyph unicode="Ù" horiz-adv-x="1477" d="M739 -25Q583 -25 472 17T289 135T185 317T152 553V1516H408V575Q408 488 427 420T487 305T591 232T741 207Q828 207 890 231T993 302T1053 417T1073 573V1516H1325V555Q1325 426 1289 319T1179 136T996 17T739 -25ZM406 1945H678L871 1605H705L406 1945Z"/><glyph unicode="Ú" horiz-adv-x="1477" d="M782 1945H1052L755 1605H590L782 1945ZM739 -25Q583 -25 472 17T289 135T185 317T152 553V1516H408V575Q408 488 427 420T487 305T591 232T741 207Q828 207 890 231T993 302T1053 417T1073 573V1516H1325V555Q1325 426 1289 319T1179 136T996 17T739 -25Z"/><glyph unicode="Û" horiz-adv-x="1477" d="M649 1945H823L1087 1605H940L735 1777L530 1605H385L649 1945ZM739 -25Q583 -25 472 17T289 135T185 317T152 553V1516H408V575Q408 488 427 420T487 305T591 232T741 207Q828 207 890 231T993 302T1053 417T1073 573V1516H1325V555Q1325 426 1289 319T1179 136T996 17T739 -25Z"/><glyph unicode="Ü" horiz-adv-x="1477" d="M418 1847H647V1599H418V1847ZM823 1847H1053V1599H823V1847ZM739 -25Q583 -25 472 17T289 135T185 317T152 553V1516H408V575Q408 488 427 420T487 305T591 232T741 207Q828 207 890 231T993 302T1053 417T1073 573V1516H1325V555Q1325 426 1289 319T1179 136T996 17T739 -25Z"/><glyph unicode="Ý" horiz-adv-x="1354" d="M547 0V653L31 1516H301L680 870L1057 1516H1323L805 653V0H547ZM688 1956H958L661 1616H496L688 1956Z"/><glyph unicode="Þ" horiz-adv-x="1362" d="M172 0V1516H428V1264H698Q820 1263 927 1239T1114 1159T1240 1014T1286 793Q1286 701 1264 630T1201 505T1104 414T982 354T842 321T690 311H428V0H172ZM428 541H698Q783 541 844 554T946 597T1006 672T1026 784Q1026 910 947 967T696 1024H428V541Z"/><glyph unicode="ß" horiz-adv-x="1341" d="M838 -23Q773 -23 718 -13T617 16T536 58T475 109L606 260Q648 222 703 198T827 174Q875 174 914 191T980 239T1021 315T1036 412Q1036 497 1003 553T909 644T764 695T578 715V897Q666 898 726 914T822 961T875 1032T891 1124Q891 1211 829 1258T651 1305Q588 1305 540 1291T458 1243T408 1158T391 1030V0H141V1022Q141 1148 178 1241T284 1395T447 1486T657 1516Q766 1516 853 1491T1000 1419T1093 1302T1126 1143Q1126 1081 1106 1030T1051 939T968 871T864 825Q942 816 1015 789T1146 712T1237 591T1272 422Q1272 316 1242 233T1155 93T1018 7T838 -23Z"/><glyph unicode="à" horiz-adv-x="1157" d="M379 -16Q313 -16 257 2T160 55T95 142T72 262Q72 350 111 423T235 554T455 651T780 713V745Q780 827 737 864T602 901Q545 901 494 889T397 855T311 808T236 754L113 911Q156 951 212 987T334 1050T476 1092T637 1108Q746 1108 821 1083T942 1007T1008 884T1028 715V266Q1028 167 1035 105T1059 0H805Q800 17 796 32T788 63T782 98T780 139Q697 55 599 20T379 -16ZM471 178Q568 178 644 212T780 303V543Q553 512 436 456T319 309Q319 244 360 211T471 178ZM260 1542H532L725 1202H559L260 1542Z"/><glyph unicode="á" horiz-adv-x="1157" d="M379 -16Q313 -16 257 2T160 55T95 142T72 262Q72 350 111 423T235 554T455 651T780 713V745Q780 827 737 864T602 901Q545 901 494 889T397 855T311 808T236 754L113 911Q156 951 212 987T334 1050T476 1092T637 1108Q746 1108 821 1083T942 1007T1008 884T1028 715V266Q1028 167 1035 105T1059 0H805Q800 17 796 32T788 63T782 98T780 139Q697 55 599 20T379 -16ZM471 178Q568 178 644 212T780 303V543Q553 512 436 456T319 309Q319 244 360 211T471 178ZM649 1542H919L622 1202H457L649 1542Z"/><glyph unicode="â" horiz-adv-x="1157" d="M379 -16Q313 -16 257 2T160 55T95 142T72 262Q72 350 111 423T235 554T455 651T780 713V745Q780 827 737 864T602 901Q545 901 494 889T397 855T311 808T236 754L113 911Q156 951 212 987T334 1050T476 1092T637 1108Q746 1108 821 1083T942 1007T1008 884T1028 715V266Q1028 167 1035 105T1059 0H805Q800 17 796 32T788 63T782 98T780 139Q697 55 599 20T379 -16ZM471 178Q568 178 644 212T780 303V543Q553 512 436 456T319 309Q319 244 360 211T471 178ZM498 1542H672L936 1202H789L584 1374L379 1202H234L498 1542Z"/><glyph unicode="ã" horiz-adv-x="1157" d="M379 -16Q313 -16 257 2T160 55T95 142T72 262Q72 350 111 423T235 554T455 651T780 713V745Q780 827 737 864T602 901Q545 901 494 889T397 855T311 808T236 754L113 911Q156 951 212 987T334 1050T476 1092T637 1108Q746 1108 821 1083T942 1007T1008 884T1028 715V266Q1028 167 1035 105T1059 0H805Q800 17 796 32T788 63T782 98T780 139Q697 55 599 20T379 -16ZM471 178Q568 178 644 212T780 303V543Q553 512 436 456T319 309Q319 244 360 211T471 178ZM737 1188Q686 1188 646 1206T570 1245T504 1285T440 1303Q397 1303 377 1278T356 1192H215Q215 1267 229 1321T271 1409T338 1460T428 1477Q479 1477 519 1459T595 1420T662 1380T727 1362Q769 1362 790 1387T811 1473H952Q952 1324 895 1256T737 1188Z"/><glyph unicode="ä" horiz-adv-x="1157" d="M379 -16Q313 -16 257 2T160 55T95 142T72 262Q72 350 111 423T235 554T455 651T780 713V745Q780 827 737 864T602 901Q545 901 494 889T397 855T311 808T236 754L113 911Q156 951 212 987T334 1050T476 1092T637 1108Q746 1108 821 1083T942 1007T1008 884T1028 715V266Q1028 167 1035 105T1059 0H805Q800 17 796 32T788 63T782 98T780 139Q697 55 599 20T379 -16ZM471 178Q568 178 644 212T780 303V543Q553 512 436 456T319 309Q319 244 360 211T471 178ZM272 1444H501V1196H272V1444ZM677 1444H907V1196H677V1444Z"/><glyph unicode="å" horiz-adv-x="1157" d="M379 -16Q313 -16 257 2T160 55T95 142T72 262Q72 350 111 423T235 554T455 651T780 713V745Q780 827 737 864T602 901Q545 901 494 889T397 855T311 808T236 754L113 911Q156 951 212 987T334 1050T476 1092T637 1108Q746 1108 821 1083T942 1007T1008 884T1028 715V266Q1028 167 1035 105T1059 0H805Q800 17 796 32T788 63T782 98T780 139Q697 55 599 20T379 -16ZM471 178Q568 178 644 212T780 303V543Q553 512 436 456T319 309Q319 244 360 211T471 178ZM594 1186Q549 1186 511 1202T445 1246T401 1312T385 1395Q385 1439 401 1477T445 1542T511 1586T594 1602Q639 1602 677 1586T744 1543T787 1477T803 1395Q803 1350 788 1312T744 1246T678 1202T594 1186ZM594 1290Q639 1290 666 1319T694 1395Q694 1440 667 1469T594 1499Q551 1499 523 1470T494 1395Q494 1348 522 1319T594 1290Z"/><glyph unicode="æ" horiz-adv-x="1833" d="M379 -23Q312 -23 256 -5T159 49T95 136T72 256Q72 344 111 418T235 551T455 650T780 713V745Q780 827 737 864T602 901Q545 901 494 889T397 855T311 808T236 754L113 911Q156 951 212 987T334 1050T476 1092T637 1108Q708 1108 759 1096T846 1061T905 1007T944 938Q968 974 1004 1005T1084 1059T1177 1095T1276 1108Q1367 1108 1452 1079T1605 980T1712 799T1753 520V471H1010Q1014 393 1037 338T1099 247T1189 195T1300 178Q1353 178 1396 186T1475 211T1543 251T1606 305L1739 174Q1653 80 1541 29T1280 -23Q1214 -23 1153 -11T1037 28T936 97T856 199Q803 141 752 99T644 30T523 -10T379 -23ZM469 172Q563 172 644 209T803 328Q792 362 787 402T780 489V549Q553 518 436 456T319 303Q319 238 359 205T469 172ZM1522 649Q1511 774 1450 838T1274 903Q1228 903 1185 890T1107 846T1048 767T1014 649H1522Z"/><glyph unicode="ç" horiz-adv-x="1126" d="M592 -408Q508 -408 436 -388T309 -332L358 -250Q405 -281 461 -296T569 -311Q692 -311 692 -231Q692 -199 673 -184T618 -168Q589 -168 567 -178T522 -205L451 -170L500 -12Q417 0 342 39T208 147T116 313T82 543Q82 647 103 729T163 874T251 981T359 1054T479 1095T602 1108Q703 1108 777 1083T904 1014T992 913T1053 791L842 715Q804 823 747 871T598 920Q544 920 496 898T412 829T355 712T334 543Q334 456 351 386T402 266T483 189T594 162Q637 162 674 173T743 210T801 275T850 373L1057 297Q1028 233 990 177T899 79T775 11T614 -18L592 -100Q614 -86 643 -78T715 -70Q744 -70 770 -79T817 -106T850 -150T862 -211Q862 -259 841 -296T783 -358T697 -395T592 -408Z"/><glyph unicode="è" horiz-adv-x="1155" d="M604 -23Q502 -23 408 9T240 110T124 286T80 543Q80 646 102 728T164 873T254 980T363 1053T481 1095T598 1108Q659 1108 718 1095T830 1054T928 981T1005 870T1056 718T1075 520V461H332Q336 387 359 334T421 246T511 195T623 178Q676 178 718 186T797 211T865 251T928 305L1061 174Q976 80 864 29T604 -23ZM844 649Q833 774 772 838T596 903Q550 903 507 890T429 846T370 767T336 649H844ZM242 1542H514L707 1202H541L242 1542Z"/><glyph unicode="é" horiz-adv-x="1155" d="M651 1542H921L624 1202H459L651 1542ZM604 -23Q502 -23 408 9T240 110T124 286T80 543Q80 646 102 728T164 873T254 980T363 1053T481 1095T598 1108Q659 1108 718 1095T830 1054T928 981T1005 870T1056 718T1075 520V461H332Q336 387 359 334T421 246T511 195T623 178Q676 178 718 186T797 211T865 251T928 305L1061 174Q976 80 864 29T604 -23ZM844 649Q833 774 772 838T596 903Q550 903 507 890T429 846T370 767T336 649H844Z"/><glyph unicode="ê" horiz-adv-x="1155" d="M498 1542H672L936 1202H789L584 1374L379 1202H234L498 1542ZM604 -23Q502 -23 408 9T240 110T124 286T80 543Q80 646 102 728T164 873T254 980T363 1053T481 1095T598 1108Q659 1108 718 1095T830 1054T928 981T1005 870T1056 718T1075 520V461H332Q336 387 359 334T421 246T511 195T623 178Q676 178 718 186T797 211T865 251T928 305L1061 174Q976 80 864 29T604 -23ZM844 649Q833 774 772 838T596 903Q550 903 507 890T429 846T370 767T336 649H844Z"/><glyph unicode="ë" horiz-adv-x="1155" d="M262 1444H491V1196H262V1444ZM667 1444H897V1196H667V1444ZM604 -23Q502 -23 408 9T240 110T124 286T80 543Q80 646 102 728T164 873T254 980T363 1053T481 1095T598 1108Q659 1108 718 1095T830 1054T928 981T1005 870T1056 718T1075 520V461H332Q336 387 359 334T421 246T511 195T623 178Q676 178 718 186T797 211T865 251T928 305L1061 174Q976 80 864 29T604 -23ZM844 649Q833 774 772 838T596 903Q550 903 507 890T429 846T370 767T336 649H844Z"/><glyph unicode="ì" horiz-adv-x="557" d="M152 0V1087H406V0H152ZM-83 1542H189L382 1202H216L-83 1542Z"/><glyph unicode="í" horiz-adv-x="557" d="M644 1542H914L617 1202H452L644 1542ZM152 0V1087H406V0H152Z"/><glyph unicode="î" horiz-adv-x="557" d="M194 1542H368L632 1202H485L280 1374L75 1202H-70L194 1542ZM152 0V1087H406V0H152Z"/><glyph unicode="ï" horiz-adv-x="557" d="M-40 1444H189V1196H-40V1444ZM365 1444H595V1196H365V1444ZM152 0V1087H406V0H152Z"/><glyph unicode="ð" horiz-adv-x="1219" d="M610 -23Q496 -23 400 13T233 117T122 284T82 506Q82 633 119 730T222 893T373 992T557 1026Q597 1026 641 1016T727 987T808 939T874 872Q856 953 822 1029T731 1176L549 1098L475 1237L627 1303Q596 1333 563 1360T492 1413L612 1556Q668 1522 718 1484T813 1401L995 1483L1069 1341L920 1274Q1025 1131 1081 950T1137 539Q1137 407 1097 303T987 126T820 15T610 -23ZM610 182Q673 182 724 203T810 265T865 368T885 510Q885 586 866 645T812 746T725 809T610 831Q546 831 495 811T408 750T353 649T334 508Q334 432 352 372T406 269T492 205T610 182Z"/><glyph unicode="ñ" horiz-adv-x="1235" d="M172 0V1087H424V913Q455 949 494 983T581 1046T687 1091T813 1108Q888 1108 947 1089T1048 1030T1112 932T1135 791V0H883V719Q883 809 845 854T719 899Q636 899 565 861T424 758V0H172ZM780 1188Q729 1188 689 1206T613 1245T547 1285T483 1303Q440 1303 420 1278T399 1192H258Q258 1267 272 1321T314 1409T381 1460T471 1477Q522 1477 562 1459T638 1420T705 1380T770 1362Q812 1362 833 1387T854 1473H995Q995 1324 938 1256T780 1188Z"/><glyph unicode="ò" horiz-adv-x="1221" d="M610 -23Q511 -23 416 9T246 111T126 287T80 543Q80 693 125 800T245 976T415 1076T610 1108Q709 1108 804 1076T974 976T1095 801T1141 543Q1141 444 1120 363T1062 219T975 111T865 36T741 -8T610 -23ZM610 188Q747 188 817 281T887 543Q887 619 871 683T820 793T734 866T610 893Q542 893 490 869T404 800T352 690T334 543Q334 465 350 400T400 288T486 215T610 188ZM271 1542H543L736 1202H570L271 1542Z"/><glyph unicode="ó" horiz-adv-x="1221" d="M676 1542H946L649 1202H484L676 1542ZM610 -23Q511 -23 416 9T246 111T126 287T80 543Q80 693 125 800T245 976T415 1076T610 1108Q709 1108 804 1076T974 976T1095 801T1141 543Q1141 444 1120 363T1062 219T975 111T865 36T741 -8T610 -23ZM610 188Q747 188 817 281T887 543Q887 619 871 683T820 793T734 866T610 893Q542 893 490 869T404 800T352 690T334 543Q334 465 350 400T400 288T486 215T610 188Z"/><glyph unicode="ô" horiz-adv-x="1221" d="M522 1542H696L960 1202H813L608 1374L403 1202H258L522 1542ZM610 -23Q511 -23 416 9T246 111T126 287T80 543Q80 693 125 800T245 976T415 1076T610 1108Q709 1108 804 1076T974 976T1095 801T1141 543Q1141 444 1120 363T1062 219T975 111T865 36T741 -8T610 -23ZM610 188Q747 188 817 281T887 543Q887 619 871 683T820 793T734 866T610 893Q542 893 490 869T404 800T352 690T334 543Q334 465 350 400T400 288T486 215T610 188Z"/><glyph unicode="õ" horiz-adv-x="1221" d="M610 -23Q511 -23 416 9T246 111T126 287T80 543Q80 693 125 800T245 976T415 1076T610 1108Q709 1108 804 1076T974 976T1095 801T1141 543Q1141 444 1120 363T1062 219T975 111T865 36T741 -8T610 -23ZM610 188Q747 188 817 281T887 543Q887 619 871 683T820 793T734 866T610 893Q542 893 490 869T404 800T352 690T334 543Q334 465 350 400T400 288T486 215T610 188ZM766 1188Q715 1188 675 1206T599 1245T533 1285T469 1303Q426 1303 406 1278T385 1192H244Q244 1267 258 1321T300 1409T367 1460T457 1477Q508 1477 548 1459T624 1420T691 1380T756 1362Q798 1362 819 1387T840 1473H981Q981 1324 924 1256T766 1188Z"/><glyph unicode="ö" horiz-adv-x="1221" d="M289 1444H518V1196H289V1444ZM694 1444H924V1196H694V1444ZM610 -23Q511 -23 416 9T246 111T126 287T80 543Q80 693 125 800T245 976T415 1076T610 1108Q709 1108 804 1076T974 976T1095 801T1141 543Q1141 444 1120 363T1062 219T975 111T865 36T741 -8T610 -23ZM610 188Q747 188 817 281T887 543Q887 619 871 683T820 793T734 866T610 893Q542 893 490 869T404 800T352 690T334 543Q334 465 350 400T400 288T486 215T610 188Z"/><glyph unicode="÷" horiz-adv-x="1315" d="M137 598V801H1180V598H137ZM537 207V422H772V207H537ZM537 975V1190H772V975H537Z"/><glyph unicode="ø" horiz-adv-x="1221" d="M1026 922Q1079 853 1110 760T1141 543Q1141 444 1120 363T1062 219T975 111T865 36T741 -8T610 -23Q530 -23 454 -3T309 61L188 -78L82 20L201 158Q145 227 113 322T80 543Q80 693 125 800T245 976T415 1076T610 1108Q692 1108 770 1087T918 1020L1032 1155L1141 1055L1026 922ZM778 850Q746 876 704 890T610 905Q541 905 489 880T400 807T346 693T328 543Q328 486 337 435T365 340L778 850ZM446 227Q477 203 518 189T610 174Q679 174 732 200T821 274T875 390T893 543Q893 597 885 645T860 735L446 227Z"/><glyph unicode="ù" horiz-adv-x="1235" d="M442 -20Q371 -20 313 1T214 63T151 165T129 307V1087H383V367Q383 276 422 233T545 190Q628 190 699 229T840 332V1087H1094V0H840V147Q814 120 776 91T689 37T578 -4T442 -20ZM281 1542H553L746 1202H580L281 1542Z"/><glyph unicode="ú" horiz-adv-x="1235" d="M670 1542H940L643 1202H478L670 1542ZM442 -20Q371 -20 313 1T214 63T151 165T129 307V1087H383V367Q383 276 422 233T545 190Q628 190 699 229T840 332V1087H1094V0H840V147Q814 120 776 91T689 37T578 -4T442 -20Z"/><glyph unicode="û" horiz-adv-x="1235" d="M524 1542H698L962 1202H815L610 1374L405 1202H260L524 1542ZM442 -20Q371 -20 313 1T214 63T151 165T129 307V1087H383V367Q383 276 422 233T545 190Q628 190 699 229T840 332V1087H1094V0H840V147Q814 120 776 91T689 37T578 -4T442 -20Z"/><glyph unicode="ü" horiz-adv-x="1235" d="M293 1444H522V1196H293V1444ZM698 1444H928V1196H698V1444ZM442 -20Q371 -20 313 1T214 63T151 165T129 307V1087H383V367Q383 276 422 233T545 190Q628 190 699 229T840 332V1087H1094V0H840V147Q814 120 776 91T689 37T578 -4T442 -20Z"/><glyph unicode="ý" horiz-adv-x="1120" d="M256 -422Q159 -422 99 -411T-2 -389L55 -186Q78 -193 126 -201T240 -209Q307 -209 346 -181T412 -86L442 -6L25 1087H287L567 295H571L850 1087H1100L637 -119Q610 -190 578 -246T501 -342T397 -401T256 -422ZM571 1542H841L544 1202H379L571 1542Z"/><glyph unicode="þ" horiz-adv-x="1251" d="M141 -410V1516H393V944Q420 976 455 1006T533 1058T627 1094T739 1108Q832 1108 911 1073T1047 968T1136 792T1169 545Q1169 404 1136 299T1041 123T895 19T705 -16Q617 -16 535 18T393 121V-410H141ZM649 184Q792 184 855 272T918 543Q918 716 849 804T657 893Q618 893 581 882T509 851T445 808T393 756V319Q444 253 512 219T649 184Z"/><glyph unicode="ÿ" horiz-adv-x="1120" d="M256 -422Q159 -422 99 -411T-2 -389L55 -186Q78 -193 126 -201T240 -209Q307 -209 346 -181T412 -86L442 -6L25 1087H287L567 295H571L850 1087H1100L637 -119Q610 -190 578 -246T501 -342T397 -401T256 -422ZM248 1444H477V1196H248V1444ZM653 1444H883V1196H653V1444Z"/><glyph unicode="Ā" horiz-adv-x="1427" d="M51 0L588 1522H840L1376 0H1114L991 360H416L291 0H51ZM494 586H915L709 1200H705L494 586ZM394 1785H1032V1599H394V1785Z"/><glyph unicode="ā" horiz-adv-x="1157" d="M379 -16Q313 -16 257 2T160 55T95 142T72 262Q72 350 111 423T235 554T455 651T780 713V745Q780 827 737 864T602 901Q545 901 494 889T397 855T311 808T236 754L113 911Q156 951 212 987T334 1050T476 1092T637 1108Q746 1108 821 1083T942 1007T1008 884T1028 715V266Q1028 167 1035 105T1059 0H805Q800 17 796 32T788 63T782 98T780 139Q697 55 599 20T379 -16ZM471 178Q568 178 644 212T780 303V543Q553 512 436 456T319 309Q319 244 360 211T471 178ZM259 1382H897V1196H259V1382Z"/><glyph unicode="Ă" horiz-adv-x="1427" d="M51 0L588 1522H840L1376 0H1114L991 360H416L291 0H51ZM494 586H915L709 1200H705L494 586ZM713 1589Q634 1589 573 1616T468 1691T401 1805T373 1951H514Q521 1894 539 1857T584 1797T644 1766T713 1757Q749 1757 782 1766T842 1797T888 1856T914 1951H1053Q1049 1872 1025 1806T958 1691T854 1616T713 1589Z"/><glyph unicode="ă" horiz-adv-x="1157" d="M379 -16Q313 -16 257 2T160 55T95 142T72 262Q72 350 111 423T235 554T455 651T780 713V745Q780 827 737 864T602 901Q545 901 494 889T397 855T311 808T236 754L113 911Q156 951 212 987T334 1050T476 1092T637 1108Q746 1108 821 1083T942 1007T1008 884T1028 715V266Q1028 167 1035 105T1059 0H805Q800 17 796 32T788 63T782 98T780 139Q697 55 599 20T379 -16ZM471 178Q568 178 644 212T780 303V543Q553 512 436 456T319 309Q319 244 360 211T471 178ZM578 1186Q499 1186 438 1213T333 1288T266 1402T238 1548H379Q386 1491 404 1454T449 1394T509 1363T578 1354Q614 1354 647 1363T707 1394T753 1453T779 1548H918Q914 1469 890 1403T823 1288T719 1213T578 1186Z"/><glyph unicode="Ą" horiz-adv-x="1427" d="M51 0L588 1522H840L1376 0H1114L991 360H416L291 0H51ZM494 586H915L709 1200H705L494 586ZM1159 -383Q1056 -383 1001 -342T946 -225Q946 -193 960 -161T1000 -97T1058 -38T1131 14H1272Q1197 -37 1161 -87T1125 -186Q1125 -204 1129 -219T1145 -246T1175 -265T1223 -272Q1280 -272 1322 -257T1403 -223L1454 -303Q1391 -340 1319 -361T1159 -383Z"/><glyph unicode="ą" horiz-adv-x="1157" d="M379 -16Q313 -16 257 2T160 55T95 142T72 262Q72 350 111 423T235 554T455 651T780 713V745Q780 827 737 864T602 901Q545 901 494 889T397 855T311 808T236 754L113 911Q156 951 212 987T334 1050T476 1092T637 1108Q746 1108 821 1083T942 1007T1008 884T1028 715V266Q1028 167 1035 105T1059 0H805Q800 17 796 32T788 63T782 98T780 139Q697 55 599 20T379 -16ZM471 178Q568 178 644 212T780 303V543Q553 512 436 456T319 309Q319 244 360 211T471 178ZM847 -383Q744 -383 689 -342T634 -225Q634 -193 648 -161T688 -97T746 -38T819 14H960Q885 -37 849 -87T813 -186Q813 -204 817 -219T833 -246T863 -265T911 -272Q968 -272 1010 -257T1091 -223L1142 -303Q1079 -340 1007 -361T847 -383Z"/><glyph unicode="Ć" horiz-adv-x="1468" d="M797 1945H1067L770 1605H605L797 1945ZM764 -29Q618 -29 496 21T286 170T148 418T98 762Q98 952 148 1098T288 1343T499 1493T764 1544Q896 1544 995 1510T1164 1413T1280 1264T1352 1073L1108 1004Q1087 1079 1059 1135T989 1230T893 1288T762 1307Q666 1307 591 1271T463 1165T384 994T356 764Q356 629 384 525T465 349T594 242T766 205Q840 205 898 224T1000 282T1077 383T1130 530L1374 475Q1346 362 1297 269T1173 110T997 8T764 -29Z"/><glyph unicode="ć" horiz-adv-x="1116" d="M647 1542H917L620 1202H455L647 1542ZM588 -23Q493 -23 402 9T240 111T124 287T80 543Q80 647 102 729T161 874T250 981T359 1054T479 1095T602 1108Q703 1108 777 1082T904 1012T992 911T1053 791L840 715Q808 808 749 852T598 897Q544 897 496 878T412 817T355 708T334 543Q334 368 401 276T594 184Q637 184 673 192T741 221T799 278T848 373L1057 297Q1028 232 988 174T892 72T761 3T588 -23Z"/><glyph unicode="Ĉ" horiz-adv-x="1468" d="M670 1945H844L1108 1605H961L756 1777L551 1605H406L670 1945ZM764 -29Q618 -29 496 21T286 170T148 418T98 762Q98 952 148 1098T288 1343T499 1493T764 1544Q896 1544 995 1510T1164 1413T1280 1264T1352 1073L1108 1004Q1087 1079 1059 1135T989 1230T893 1288T762 1307Q666 1307 591 1271T463 1165T384 994T356 764Q356 629 384 525T465 349T594 242T766 205Q840 205 898 224T1000 282T1077 383T1130 530L1374 475Q1346 362 1297 269T1173 110T997 8T764 -29Z"/><glyph unicode="ĉ" horiz-adv-x="1116" d="M486 1542H660L924 1202H777L572 1374L367 1202H222L486 1542ZM588 -23Q493 -23 402 9T240 111T124 287T80 543Q80 647 102 729T161 874T250 981T359 1054T479 1095T602 1108Q703 1108 777 1082T904 1012T992 911T1053 791L840 715Q808 808 749 852T598 897Q544 897 496 878T412 817T355 708T334 543Q334 368 401 276T594 184Q637 184 673 192T741 221T799 278T848 373L1057 297Q1028 232 988 174T892 72T761 3T588 -23Z"/><glyph unicode="Ċ" horiz-adv-x="1468" d="M764 -29Q618 -29 496 21T286 170T148 418T98 762Q98 952 148 1098T288 1343T499 1493T764 1544Q896 1544 995 1510T1164 1413T1280 1264T1352 1073L1108 1004Q1087 1079 1059 1135T989 1230T893 1288T762 1307Q666 1307 591 1271T463 1165T384 994T356 764Q356 629 384 525T465 349T594 242T766 205Q840 205 898 224T1000 282T1077 383T1130 530L1374 475Q1346 362 1297 269T1173 110T997 8T764 -29ZM619 1849H889V1622H619V1849Z"/><glyph unicode="ċ" horiz-adv-x="1116" d="M588 -23Q493 -23 402 9T240 111T124 287T80 543Q80 647 102 729T161 874T250 981T359 1054T479 1095T602 1108Q703 1108 777 1082T904 1012T992 911T1053 791L840 715Q808 808 749 852T598 897Q544 897 496 878T412 817T355 708T334 543Q334 368 401 276T594 184Q637 184 673 192T741 221T799 278T848 373L1057 297Q1028 232 988 174T892 72T761 3T588 -23ZM443 1446H713V1219H443V1446Z"/><glyph unicode="Č" horiz-adv-x="1468" d="M381 1951H528L733 1779L938 1951H1083L819 1611H645L381 1951ZM764 -29Q618 -29 496 21T286 170T148 418T98 762Q98 952 148 1098T288 1343T499 1493T764 1544Q896 1544 995 1510T1164 1413T1280 1264T1352 1073L1108 1004Q1087 1079 1059 1135T989 1230T893 1288T762 1307Q666 1307 591 1271T463 1165T384 994T356 764Q356 629 384 525T465 349T594 242T766 205Q840 205 898 224T1000 282T1077 383T1130 530L1374 475Q1346 362 1297 269T1173 110T997 8T764 -29Z"/><glyph unicode="č" horiz-adv-x="1116" d="M207 1548H354L559 1376L764 1548H909L645 1208H471L207 1548ZM588 -23Q493 -23 402 9T240 111T124 287T80 543Q80 647 102 729T161 874T250 981T359 1054T479 1095T602 1108Q703 1108 777 1082T904 1012T992 911T1053 791L840 715Q808 808 749 852T598 897Q544 897 496 878T412 817T355 708T334 543Q334 368 401 276T594 184Q637 184 673 192T741 221T799 278T848 373L1057 297Q1028 232 988 174T892 72T761 3T588 -23Z"/><glyph unicode="Ď" horiz-adv-x="1491" d="M394 1951H541L746 1779L951 1951H1096L832 1611H658L394 1951ZM172 0V1516H604Q782 1516 927 1473T1176 1339T1335 1105T1391 764Q1391 561 1334 417T1174 180T925 44T604 0H172ZM428 229H627Q757 229 852 258T1011 352T1104 518T1135 764Q1135 900 1104 997T1010 1157T850 1249T623 1278H428V229Z"/><glyph unicode="ď" horiz-adv-x="1251" d="M1303 1403H1206V1640H1450V1434L1341 1192H1239L1303 1403ZM512 -16Q419 -16 340 18T204 121T115 295T82 541Q82 682 115 788T210 966T356 1072T547 1108Q635 1108 716 1074T858 971V1516H1110V266Q1110 167 1117 105T1143 0H883Q872 23 865 64T858 147Q828 112 793 83T716 31T624 -3T512 -16ZM594 190Q633 190 671 201T743 232T806 276T858 328V764Q807 830 739 864T602 899Q531 899 480 876T397 808T349 694T334 535Q334 362 403 276T594 190Z"/><glyph unicode="Đ" horiz-adv-x="1491" d="M172 0V686H23V883H172V1516H604Q782 1516 927 1473T1176 1338T1335 1103T1391 758Q1391 558 1334 415T1174 179T925 44T604 0H172ZM426 227H627Q757 227 852 257T1011 352T1104 518T1135 764Q1135 900 1104 997T1010 1157T850 1249T623 1278H426V883H743V686H426V227Z"/><glyph unicode="đ" horiz-adv-x="1251" d="M662 1366H858V1516H1110V1366H1260V1198H1110V266Q1110 167 1117 105T1143 0H883Q877 12 873 30T865 71T860 118T858 164Q829 127 794 94T717 36T624 -3T512 -18Q419 -18 340 15T204 118T115 291T82 537Q82 678 114 785T205 963T342 1071T516 1108Q628 1108 713 1064T858 942V1198H662V1366ZM594 176Q672 176 736 214T858 313V768Q792 833 730 866T590 899Q532 899 485 877T405 810T353 698T334 539Q334 453 352 386T403 272T485 201T594 176Z"/><glyph unicode="Ē" horiz-adv-x="1272" d="M172 0V1516H1151V1278H428V901H958V674H428V233H1192V0H172ZM357 1785H995V1599H357V1785Z"/><glyph unicode="ē" horiz-adv-x="1155" d="M604 -23Q502 -23 408 9T240 110T124 286T80 543Q80 646 102 728T164 873T254 980T363 1053T481 1095T598 1108Q659 1108 718 1095T830 1054T928 981T1005 870T1056 718T1075 520V461H332Q336 387 359 334T421 246T511 195T623 178Q676 178 718 186T797 211T865 251T928 305L1061 174Q976 80 864 29T604 -23ZM844 649Q833 774 772 838T596 903Q550 903 507 890T429 846T370 767T336 649H844ZM256 1382H894V1196H256V1382Z"/><glyph unicode="Ĕ" horiz-adv-x="1272" d="M172 0V1516H1151V1278H428V901H958V674H428V233H1192V0H172ZM645 1587Q566 1587 505 1614T400 1689T333 1803T305 1949H446Q453 1892 471 1855T516 1795T576 1764T645 1755Q681 1755 714 1764T774 1795T820 1854T846 1949H985Q981 1870 957 1804T890 1689T786 1614T645 1587Z"/><glyph unicode="ĕ" horiz-adv-x="1155" d="M604 -23Q502 -23 408 9T240 110T124 286T80 543Q80 646 102 728T164 873T254 980T363 1053T481 1095T598 1108Q659 1108 718 1095T830 1054T928 981T1005 870T1056 718T1075 520V461H332Q336 387 359 334T421 246T511 195T623 178Q676 178 718 186T797 211T865 251T928 305L1061 174Q976 80 864 29T604 -23ZM844 649Q833 774 772 838T596 903Q550 903 507 890T429 846T370 767T336 649H844ZM586 1186Q507 1186 446 1213T341 1288T274 1402T246 1548H387Q394 1491 412 1454T457 1394T517 1363T586 1354Q622 1354 655 1363T715 1394T761 1453T787 1548H926Q922 1469 898 1403T831 1288T727 1213T586 1186Z"/><glyph unicode="Ė" horiz-adv-x="1272" d="M172 0V1516H1151V1278H428V901H958V674H428V233H1192V0H172ZM541 1849H811V1622H541V1849Z"/><glyph unicode="ė" horiz-adv-x="1155" d="M604 -23Q502 -23 408 9T240 110T124 286T80 543Q80 646 102 728T164 873T254 980T363 1053T481 1095T598 1108Q659 1108 718 1095T830 1054T928 981T1005 870T1056 718T1075 520V461H332Q336 387 359 334T421 246T511 195T623 178Q676 178 718 186T797 211T865 251T928 305L1061 174Q976 80 864 29T604 -23ZM844 649Q833 774 772 838T596 903Q550 903 507 890T429 846T370 767T336 649H844ZM440 1446H710V1219H440V1446Z"/><glyph unicode="Ę" horiz-adv-x="1272" d="M938 -383Q835 -383 780 -342T725 -225Q725 -193 739 -161T779 -97T837 -38T910 14H1051Q976 -37 940 -87T904 -186Q904 -204 908 -219T924 -246T954 -265T1002 -272Q1059 -272 1101 -257T1182 -223L1233 -303Q1170 -340 1098 -361T938 -383ZM172 0V1516H1151V1278H428V901H958V674H428V233H1192V0H172Z"/><glyph unicode="ę" horiz-adv-x="1155" d="M647 -383Q544 -383 489 -342T434 -225Q434 -193 448 -161T488 -97T546 -38T619 14H760Q685 -37 649 -87T613 -186Q613 -204 617 -219T633 -246T663 -265T711 -272Q768 -272 810 -257T891 -223L942 -303Q879 -340 807 -361T647 -383ZM604 -23Q502 -23 408 9T240 110T124 286T80 543Q80 646 102 728T164 873T254 980T363 1053T481 1095T598 1108Q659 1108 718 1095T830 1054T928 981T1005 870T1056 718T1075 520V461H332Q336 387 359 334T421 246T511 195T623 178Q676 178 718 186T797 211T865 251T928 305L1061 174Q976 80 864 29T604 -23ZM844 649Q833 774 772 838T596 903Q550 903 507 890T429 846T370 767T336 649H844Z"/><glyph unicode="Ě" horiz-adv-x="1272" d="M324 1951H471L676 1779L881 1951H1026L762 1611H588L324 1951ZM172 0V1516H1151V1278H428V901H958V674H428V233H1192V0H172Z"/><glyph unicode="ě" horiz-adv-x="1155" d="M226 1548H373L578 1376L783 1548H928L664 1208H490L226 1548ZM604 -23Q502 -23 408 9T240 110T124 286T80 543Q80 646 102 728T164 873T254 980T363 1053T481 1095T598 1108Q659 1108 718 1095T830 1054T928 981T1005 870T1056 718T1075 520V461H332Q336 387 359 334T421 246T511 195T623 178Q676 178 718 186T797 211T865 251T928 305L1061 174Q976 80 864 29T604 -23ZM844 649Q833 774 772 838T596 903Q550 903 507 890T429 846T370 767T336 649H844Z"/><glyph unicode="Ĝ" horiz-adv-x="1526" d="M678 1945H852L1116 1605H969L764 1777L559 1605H414L678 1945ZM745 -29Q582 -29 461 30T259 194T138 444T98 764Q98 946 145 1090T280 1336T491 1490T766 1544Q874 1544 966 1518T1134 1435T1264 1287T1354 1067L1116 1004Q1091 1089 1058 1147T983 1240T886 1291T764 1307Q719 1307 672 1297T579 1263T493 1198T422 1099T374 958T356 770Q356 611 391 502T484 327T618 231T774 201Q849 201 911 223T1020 288T1094 395T1128 543H823V750H1374V0H1163V219H1159Q1141 178 1107 135T1022 55T902 -5T745 -29Z"/><glyph unicode="ĝ" horiz-adv-x="1219" d="M473 1542H647L911 1202H764L559 1374L354 1202H209L473 1542ZM551 -422Q410 -422 311 -403T148 -348T56 -264T27 -156Q27 -74 74 -16T205 74Q121 117 121 207Q121 238 132 266T164 318T210 365T268 406Q185 458 141 538T96 719Q96 803 127 874T218 997T361 1078T553 1108Q665 1108 748 1076T887 993Q913 1014 945 1032T1014 1064T1086 1088T1157 1100V895Q1120 895 1071 889T967 866Q985 837 995 800T1006 719Q1006 634 975 563T886 441T743 361T553 332Q530 332 511 333T475 338T439 345T401 354Q377 340 362 323T346 285Q346 253 372 239T471 219L664 207Q784 199 869 179T1008 122T1087 34T1112 -90Q1112 -174 1072 -236T958 -339T781 -401T551 -422ZM557 506Q660 506 718 558T776 711Q776 813 720 866T555 920Q450 920 392 866T334 711Q334 611 393 559T557 506ZM590 -240Q659 -240 714 -231T808 -206T868 -166T889 -113Q889 -84 877 -64T834 -29T749 -6T612 8L424 20Q407 20 391 22T358 27Q304 2 281 -34T258 -113Q258 -185 340 -212T590 -240Z"/><glyph unicode="Ğ" horiz-adv-x="1526" d="M745 -29Q582 -29 461 30T259 194T138 444T98 764Q98 946 145 1090T280 1336T491 1490T766 1544Q874 1544 966 1518T1134 1435T1264 1287T1354 1067L1116 1004Q1091 1089 1058 1147T983 1240T886 1291T764 1307Q719 1307 672 1297T579 1263T493 1198T422 1099T374 958T356 770Q356 611 391 502T484 327T618 231T774 201Q849 201 911 223T1020 288T1094 395T1128 543H823V750H1374V0H1163V219H1159Q1141 178 1107 135T1022 55T902 -5T745 -29ZM762 1589Q683 1589 622 1616T517 1691T450 1805T422 1951H563Q570 1894 588 1857T633 1797T693 1766T762 1757Q798 1757 831 1766T891 1797T937 1856T963 1951H1102Q1098 1872 1074 1806T1007 1691T903 1616T762 1589Z"/><glyph unicode="ğ" horiz-adv-x="1219" d="M551 -422Q410 -422 311 -403T148 -348T56 -264T27 -156Q27 -74 74 -16T205 74Q121 117 121 207Q121 238 132 266T164 318T210 365T268 406Q185 458 141 538T96 719Q96 803 127 874T218 997T361 1078T553 1108Q665 1108 748 1076T887 993Q913 1014 945 1032T1014 1064T1086 1088T1157 1100V895Q1120 895 1071 889T967 866Q985 837 995 800T1006 719Q1006 634 975 563T886 441T743 361T553 332Q530 332 511 333T475 338T439 345T401 354Q377 340 362 323T346 285Q346 253 372 239T471 219L664 207Q784 199 869 179T1008 122T1087 34T1112 -90Q1112 -174 1072 -236T958 -339T781 -401T551 -422ZM557 506Q660 506 718 558T776 711Q776 813 720 866T555 920Q450 920 392 866T334 711Q334 611 393 559T557 506ZM590 -240Q659 -240 714 -231T808 -206T868 -166T889 -113Q889 -84 877 -64T834 -29T749 -6T612 8L424 20Q407 20 391 22T358 27Q304 2 281 -34T258 -113Q258 -185 340 -212T590 -240ZM575 1186Q496 1186 435 1213T330 1288T263 1402T235 1548H376Q383 1491 401 1454T446 1394T506 1363T575 1354Q611 1354 644 1363T704 1394T750 1453T776 1548H915Q911 1469 887 1403T820 1288T716 1213T575 1186Z"/><glyph unicode="Ġ" horiz-adv-x="1526" d="M745 -29Q582 -29 461 30T259 194T138 444T98 764Q98 946 145 1090T280 1336T491 1490T766 1544Q874 1544 966 1518T1134 1435T1264 1287T1354 1067L1116 1004Q1091 1089 1058 1147T983 1240T886 1291T764 1307Q719 1307 672 1297T579 1263T493 1198T422 1099T374 958T356 770Q356 611 391 502T484 327T618 231T774 201Q849 201 911 223T1020 288T1094 395T1128 543H823V750H1374V0H1163V219H1159Q1141 178 1107 135T1022 55T902 -5T745 -29ZM621 1849H891V1622H621V1849Z"/><glyph unicode="ġ" horiz-adv-x="1219" d="M551 -422Q410 -422 311 -403T148 -348T56 -264T27 -156Q27 -74 74 -16T205 74Q121 117 121 207Q121 238 132 266T164 318T210 365T268 406Q185 458 141 538T96 719Q96 803 127 874T218 997T361 1078T553 1108Q665 1108 748 1076T887 993Q913 1014 945 1032T1014 1064T1086 1088T1157 1100V895Q1120 895 1071 889T967 866Q985 837 995 800T1006 719Q1006 634 975 563T886 441T743 361T553 332Q530 332 511 333T475 338T439 345T401 354Q377 340 362 323T346 285Q346 253 372 239T471 219L664 207Q784 199 869 179T1008 122T1087 34T1112 -90Q1112 -174 1072 -236T958 -339T781 -401T551 -422ZM557 506Q660 506 718 558T776 711Q776 813 720 866T555 920Q450 920 392 866T334 711Q334 611 393 559T557 506ZM590 -240Q659 -240 714 -231T808 -206T868 -166T889 -113Q889 -84 877 -64T834 -29T749 -6T612 8L424 20Q407 20 391 22T358 27Q304 2 281 -34T258 -113Q258 -185 340 -212T590 -240ZM424 1446H694V1219H424V1446Z"/><glyph unicode="Ģ" horiz-adv-x="1526" d="M737 -338H639V-92H891V-307L778 -555H671L737 -338ZM745 -29Q582 -29 461 30T259 194T138 444T98 764Q98 946 145 1090T280 1336T491 1490T766 1544Q874 1544 966 1518T1134 1435T1264 1287T1354 1067L1116 1004Q1091 1089 1058 1147T983 1240T886 1291T764 1307Q719 1307 672 1297T579 1263T493 1198T422 1099T374 958T356 770Q356 611 391 502T484 327T618 231T774 201Q849 201 911 223T1020 288T1094 395T1128 543H823V750H1374V0H1163V219H1159Q1141 178 1107 135T1022 55T902 -5T745 -29Z"/><glyph unicode="ģ" horiz-adv-x="1219" d="M451 1411L561 1659H668L602 1442H703V1196H451V1411ZM551 -422Q410 -422 311 -403T148 -348T56 -264T27 -156Q27 -74 74 -16T205 74Q121 117 121 207Q121 238 132 266T164 318T210 365T268 406Q185 458 141 538T96 719Q96 803 127 874T218 997T361 1078T553 1108Q665 1108 748 1076T887 993Q913 1014 945 1032T1014 1064T1086 1088T1157 1100V895Q1120 895 1071 889T967 866Q985 837 995 800T1006 719Q1006 634 975 563T886 441T743 361T553 332Q530 332 511 333T475 338T439 345T401 354Q377 340 362 323T346 285Q346 253 372 239T471 219L664 207Q784 199 869 179T1008 122T1087 34T1112 -90Q1112 -174 1072 -236T958 -339T781 -401T551 -422ZM557 506Q660 506 718 558T776 711Q776 813 720 866T555 920Q450 920 392 866T334 711Q334 611 393 559T557 506ZM590 -240Q659 -240 714 -231T808 -206T868 -166T889 -113Q889 -84 877 -64T834 -29T749 -6T612 8L424 20Q407 20 391 22T358 27Q304 2 281 -34T258 -113Q258 -185 340 -212T590 -240Z"/><glyph unicode="Ĥ" horiz-adv-x="1544" d="M684 1945H858L1122 1605H975L770 1777L565 1605H420L684 1945ZM172 0V1516H428V911H1116V1516H1372V0H1116V674H428V0H172Z"/><glyph unicode="ĥ" horiz-adv-x="1235" d="M179 1945H353L617 1605H470L265 1777L60 1605H-85L179 1945ZM141 0V1516H395V940Q421 968 459 997T546 1051T657 1092T793 1108Q864 1108 922 1087T1021 1025T1084 922T1106 780V0H852V717Q852 808 813 850T690 893Q607 893 536 854T395 752V0H141Z"/><glyph unicode="Ħ" horiz-adv-x="1544" d="M23 1290H172V1516H428V1290H1116V1516H1372V1290H1522V1094H1372V0H1116V674H428V0H172V1094H23V1290ZM1116 911V1094H428V911H1116Z"/><glyph unicode="ħ" horiz-adv-x="1235" d="M-8 1366H141V1516H395V1366H590V1198H395V940Q421 968 459 997T546 1051T657 1092T793 1108Q864 1108 922 1087T1021 1025T1084 922T1106 780V0H852V717Q852 808 813 850T690 893Q607 893 536 854T395 752V0H141V1198H-8V1366Z"/><glyph unicode="Ĩ" horiz-adv-x="635" d="M188 0V1516H446V0H188ZM474 1591Q423 1591 383 1609T307 1648T241 1688T177 1706Q134 1706 114 1681T93 1595H-48Q-48 1670 -34 1724T8 1812T75 1863T165 1880Q216 1880 256 1862T332 1823T399 1783T464 1765Q506 1765 527 1790T548 1876H689Q689 1727 632 1659T474 1591Z"/><glyph unicode="ĩ" horiz-adv-x="557" d="M152 0V1087H406V0H152ZM435 1188Q384 1188 344 1206T268 1245T202 1285T138 1303Q95 1303 75 1278T54 1192H-87Q-87 1267 -73 1321T-31 1409T36 1460T126 1477Q177 1477 217 1459T293 1420T360 1380T425 1362Q467 1362 488 1387T509 1473H650Q650 1324 593 1256T435 1188Z"/><glyph unicode="Ī" horiz-adv-x="635" d="M188 0V1516H446V0H188ZM-1 1785H637V1599H-1V1785Z"/><glyph unicode="ī" horiz-adv-x="557" d="M152 0V1087H406V0H152ZM-39 1382H599V1196H-39V1382Z"/><glyph unicode="Ĭ" horiz-adv-x="635" d="M188 0V1516H446V0H188ZM318 1587Q239 1587 178 1614T73 1689T6 1803T-22 1949H119Q126 1892 144 1855T189 1795T249 1764T318 1755Q354 1755 387 1764T447 1795T493 1854T519 1949H658Q654 1870 630 1804T563 1689T459 1614T318 1587Z"/><glyph unicode="ĭ" horiz-adv-x="557" d="M152 0V1087H406V0H152ZM280 1186Q201 1186 140 1213T35 1288T-32 1402T-60 1548H81Q88 1491 106 1454T151 1394T211 1363T280 1354Q316 1354 349 1363T409 1394T455 1453T481 1548H620Q616 1469 592 1403T525 1288T421 1213T280 1186Z"/><glyph unicode="Į" horiz-adv-x="635" d="M188 0V1516H446V0H188ZM234 -383Q131 -383 76 -342T21 -225Q21 -193 35 -161T75 -97T133 -38T206 14H347Q272 -37 236 -87T200 -186Q200 -204 204 -219T220 -246T250 -265T298 -272Q355 -272 397 -257T478 -223L529 -303Q466 -340 394 -361T234 -383Z"/><glyph unicode="į" horiz-adv-x="557" d="M152 0V1087H406V0H152ZM150 1276V1495H408V1276H150ZM197 -383Q94 -383 39 -342T-16 -225Q-16 -193 -2 -161T38 -97T96 -38T169 14H310Q235 -37 199 -87T163 -186Q163 -204 167 -219T183 -246T213 -265T261 -272Q318 -272 360 -257T441 -223L492 -303Q429 -340 357 -361T197 -383Z"/><glyph unicode="İ" horiz-adv-x="635" d="M188 0V1516H446V0H188ZM183 1849H453V1622H183V1849Z"/><glyph unicode="ı" horiz-adv-x="557" d="M152 0V1087H406V0H152Z"/><glyph unicode="Ĳ" horiz-adv-x="1618" d="M188 0V1516H446V0H188ZM1002 -23Q865 -23 766 23T590 151L750 309Q770 289 795 270T849 235T913 211T985 201Q1038 201 1080 213T1151 255T1196 335T1212 461V1522H1468V426Q1468 320 1437 237T1346 96T1200 8T1002 -23Z"/><glyph unicode="ĳ" horiz-adv-x="1114" d="M152 0V1087H406V0H152ZM150 1276V1495H408V1276H150ZM659 -408Q641 -408 618 -407T571 -403T530 -399T506 -395V-219Q520 -222 543 -224T588 -227Q648 -227 678 -196T709 -90V1093H963V-129Q963 -185 951 -236T906 -325T813 -385T659 -408ZM707 1282V1501H965V1282H707Z"/><glyph unicode="Ĵ" horiz-adv-x="1065" d="M699 1945H873L1137 1605H990L785 1777L580 1605H435L699 1945ZM449 -29Q312 -29 213 17T37 145L197 303Q217 283 242 264T296 229T360 205T432 195Q485 195 527 207T598 249T643 329T659 455V1516H915V420Q915 314 884 231T793 90T647 2T449 -29Z"/><glyph unicode="ĵ" horiz-adv-x="557" d="M102 -414Q85 -414 62 -413T15 -411T-26 -407T-51 -403V-225Q-37 -230 -13 -233T33 -236Q92 -236 123 -204T154 -98V1087H406V-137Q406 -193 394 -243T349 -332T256 -392T102 -414ZM193 1542H367L631 1202H484L279 1374L74 1202H-71L193 1542Z"/><glyph unicode="Ķ" horiz-adv-x="1430" d="M688 -338H590V-92H842V-307L729 -555H622L688 -338ZM172 0V1516H428V811L1024 1516H1327L811 932L1391 0H1098L643 735L428 498V0H172Z"/><glyph unicode="ķ" horiz-adv-x="1153" d="M549 -338H451V-92H703V-307L590 -555H483L549 -338ZM141 0V1516H393V612L805 1087H1081L727 690L1112 0H848L567 504L393 313V0H141Z"/><glyph unicode="ĸ" horiz-adv-x="1153" d="M141 1087H393V612L805 1087H1081L727 690L1112 0H848L567 506L393 313V0H141V1087Z"/><glyph unicode="Ĺ" horiz-adv-x="1184" d="M411 1945H681L384 1605H219L411 1945ZM172 0V1516H428V233H1126V0H172Z"/><glyph unicode="ĺ" horiz-adv-x="557" d="M384 1945H654L357 1605H192L384 1945ZM152 0V1516H406V0H152Z"/><glyph unicode="Ļ" horiz-adv-x="1184" d="M565 -338H467V-92H719V-307L606 -555H499L565 -338ZM172 0V1516H428V233H1126V0H172Z"/><glyph unicode="ļ" horiz-adv-x="557" d="M511 -338H413V-92H665V-307L552 -555H445L511 -338ZM152 0V1516H406V0H152Z"/><glyph unicode="Ľ" horiz-adv-x="1184" d="M737 1270H639V1516H891V1301L778 1053H671L737 1270ZM172 0V1516H428V233H1126V0H172Z"/><glyph unicode="ľ" horiz-adv-x="557" d="M594 1403H498V1640H741V1434L633 1192H530L594 1403ZM152 0V1516H406V0H152Z"/><glyph unicode="Ŀ" horiz-adv-x="1235" d="M788 946H1038V719H788V946ZM172 0V1516H428V233H1126V0H172Z"/><glyph unicode="ŀ" horiz-adv-x="811" d="M559 791H809V565H559V791ZM152 0V1516H406V0H152Z"/><glyph unicode="Ł" horiz-adv-x="1184" d="M172 0V680L2 635V831L172 877V1516H430V944L733 1026V829L430 748V233H1126V0H172Z"/><glyph unicode="ł" horiz-adv-x="657" d="M205 850L45 807V995L205 1038V1516H457V1106L616 1149V961L457 918V0H205V850Z"/><glyph unicode="Ń" horiz-adv-x="1563" d="M813 1945H1083L786 1605H621L813 1945ZM172 0V1516H432L1149 434H1153V1516H1391V0H1157L414 1104H410V0H172Z"/><glyph unicode="ń" horiz-adv-x="1235" d="M641 1542H911L614 1202H449L641 1542ZM143 0V1087H395V913Q426 949 465 983T552 1046T658 1091T784 1108Q859 1108 918 1089T1019 1030T1083 932T1106 791V0H854V719Q854 809 816 854T690 899Q607 899 536 861T395 758V0H143Z"/><glyph unicode="Ņ" horiz-adv-x="1563" d="M754 -338H656V-92H908V-307L795 -555H688L754 -338ZM172 0V1516H432L1149 434H1153V1516H1391V0H1157L414 1104H410V0H172Z"/><glyph unicode="ņ" horiz-adv-x="1235" d="M594 -338H496V-92H748V-307L635 -555H528L594 -338ZM143 0V1087H395V913Q426 949 465 983T552 1046T658 1091T784 1108Q859 1108 918 1089T1019 1030T1083 932T1106 791V0H854V719Q854 809 816 854T690 899Q607 899 536 861T395 758V0H143Z"/><glyph unicode="Ň" horiz-adv-x="1563" d="M428 1951H575L780 1779L985 1951H1130L866 1611H692L428 1951ZM172 0V1516H432L1149 434H1153V1516H1391V0H1157L414 1104H410V0H172Z"/><glyph unicode="ň" horiz-adv-x="1235" d="M269 1548H416L621 1376L826 1548H971L707 1208H533L269 1548ZM143 0V1087H395V913Q426 949 465 983T552 1046T658 1091T784 1108Q859 1108 918 1089T1019 1030T1083 932T1106 791V0H854V719Q854 809 816 854T690 899Q607 899 536 861T395 758V0H143Z"/><glyph unicode="Ŋ" horiz-adv-x="1563" d="M172 1516H432L1151 434H1155V1516H1391V10Q1391 -90 1363 -168T1279 -301T1139 -385T942 -414Q863 -414 801 -400T690 -361T602 -302T530 -229L676 -68Q699 -98 725 -123T782 -167T849 -196T928 -207Q973 -207 1011 -196T1077 -159T1124 -92T1147 8V16L414 1104H410V0H172V1516Z"/><glyph unicode="ŋ" horiz-adv-x="1235" d="M143 1087H395V913Q426 949 465 983T552 1046T658 1091T784 1108Q859 1108 918 1089T1019 1030T1083 932T1106 791V-137Q1106 -193 1094 -243T1049 -332T957 -392T803 -414Q786 -414 763 -413T717 -411T676 -407T651 -403V-225Q664 -230 688 -233T733 -236Q790 -236 822 -206T854 -106V719Q854 809 816 854T690 899Q607 899 536 861T395 758V0H143V1087Z"/><glyph unicode="Ō" horiz-adv-x="1565" d="M461 1785H1099V1599H461V1785ZM784 -29Q640 -29 515 22T297 173T151 420T98 758Q98 949 151 1096T296 1342T514 1493T784 1544Q928 1544 1052 1493T1269 1343T1413 1096T1466 758Q1466 567 1414 420T1269 173T1053 22T784 -29ZM784 203Q879 203 957 239T1091 346T1177 520T1208 758Q1208 891 1178 994T1092 1167T958 1273T784 1309Q687 1309 608 1273T473 1167T387 994T356 758Q356 624 386 521T473 347T608 240T784 203Z"/><glyph unicode="ō" horiz-adv-x="1221" d="M291 1382H929V1196H291V1382ZM610 -23Q511 -23 416 9T246 111T126 287T80 543Q80 693 125 800T245 976T415 1076T610 1108Q709 1108 804 1076T974 976T1095 801T1141 543Q1141 444 1120 363T1062 219T975 111T865 36T741 -8T610 -23ZM610 188Q747 188 817 281T887 543Q887 619 871 683T820 793T734 866T610 893Q542 893 490 869T404 800T352 690T334 543Q334 465 350 400T400 288T486 215T610 188Z"/><glyph unicode="Ŏ" horiz-adv-x="1565" d="M784 -29Q640 -29 515 22T297 173T151 420T98 758Q98 949 151 1096T296 1342T514 1493T784 1544Q928 1544 1052 1493T1269 1343T1413 1096T1466 758Q1466 567 1414 420T1269 173T1053 22T784 -29ZM784 203Q879 203 957 239T1091 346T1177 520T1208 758Q1208 891 1178 994T1092 1167T958 1273T784 1309Q687 1309 608 1273T473 1167T387 994T356 758Q356 624 386 521T473 347T608 240T784 203ZM780 1589Q701 1589 640 1616T535 1691T468 1805T440 1951H581Q588 1894 606 1857T651 1797T711 1766T780 1757Q816 1757 849 1766T909 1797T955 1856T981 1951H1120Q1116 1872 1092 1806T1025 1691T921 1616T780 1589Z"/><glyph unicode="ŏ" horiz-adv-x="1221" d="M610 -23Q511 -23 416 9T246 111T126 287T80 543Q80 693 125 800T245 976T415 1076T610 1108Q709 1108 804 1076T974 976T1095 801T1141 543Q1141 444 1120 363T1062 219T975 111T865 36T741 -8T610 -23ZM610 188Q747 188 817 281T887 543Q887 619 871 683T820 793T734 866T610 893Q542 893 490 869T404 800T352 690T334 543Q334 465 350 400T400 288T486 215T610 188ZM610 1186Q531 1186 470 1213T365 1288T298 1402T270 1548H411Q418 1491 436 1454T481 1394T541 1363T610 1354Q646 1354 679 1363T739 1394T785 1453T811 1548H950Q946 1469 922 1403T855 1288T751 1213T610 1186Z"/><glyph unicode="Ő" horiz-adv-x="1565" d="M658 1945H932L621 1605H453L658 1945ZM1035 1945H1309L988 1605H820L1035 1945ZM784 -29Q640 -29 515 22T297 173T151 420T98 758Q98 949 151 1096T296 1342T514 1493T784 1544Q928 1544 1052 1493T1269 1343T1413 1096T1466 758Q1466 567 1414 420T1269 173T1053 22T784 -29ZM784 203Q879 203 957 239T1091 346T1177 520T1208 758Q1208 891 1178 994T1092 1167T958 1273T784 1309Q687 1309 608 1273T473 1167T387 994T356 758Q356 624 386 521T473 347T608 240T784 203Z"/><glyph unicode="ő" horiz-adv-x="1221" d="M504 1542H778L467 1202H299L504 1542ZM881 1542H1155L834 1202H666L881 1542ZM610 -23Q511 -23 416 9T246 111T126 287T80 543Q80 693 125 800T245 976T415 1076T610 1108Q709 1108 804 1076T974 976T1095 801T1141 543Q1141 444 1120 363T1062 219T975 111T865 36T741 -8T610 -23ZM610 188Q747 188 817 281T887 543Q887 619 871 683T820 793T734 866T610 893Q542 893 490 869T404 800T352 690T334 543Q334 465 350 400T400 288T486 215T610 188Z"/><glyph unicode="Œ" horiz-adv-x="2306" d="M782 -29Q645 -29 521 22T302 173T152 420T96 758Q96 949 151 1096T301 1342T520 1493T782 1544Q925 1544 1039 1484T1229 1321V1516H2185V1278H1462V901H1993V674H1462V233H2224V0H1229V197Q1153 93 1039 32T782 -29ZM782 203Q877 203 955 239T1089 346T1175 520T1206 758Q1206 891 1176 994T1090 1167T956 1273T782 1309Q685 1309 606 1273T471 1167T385 994T354 758Q354 624 384 521T471 347T606 240T782 203Z"/><glyph unicode="œ" horiz-adv-x="1946" d="M608 -23Q509 -23 414 9T245 111T126 287T80 543Q80 693 125 800T244 976T413 1076T608 1108Q671 1108 730 1094T840 1051T933 982T1004 889Q1030 938 1072 978T1165 1047T1275 1092T1391 1108Q1451 1108 1509 1095T1621 1054T1719 981T1796 870T1847 718T1866 520V471H1122Q1126 393 1149 338T1211 247T1301 195T1413 178Q1466 178 1508 186T1587 211T1655 251T1718 305L1851 174Q1766 80 1655 29T1395 -23Q1333 -23 1273 -9T1160 33T1065 100T999 188Q969 140 928 101T836 35T729 -8T608 -23ZM608 186Q745 186 814 280T883 543Q883 619 867 683T817 793T732 866T608 893Q540 893 489 869T403 800T351 690T334 543Q334 465 350 400T399 287T484 213T608 186ZM1634 649Q1623 774 1562 838T1386 903Q1340 903 1298 890T1220 846T1160 767T1126 649H1634Z"/><glyph unicode="Ŕ" horiz-adv-x="1415" d="M760 1945H1030L733 1605H568L760 1945ZM172 0V1516H715Q850 1516 956 1489T1134 1405T1245 1263T1284 1061Q1284 970 1261 899T1195 775T1090 686T948 631L1305 0H1030L690 598H424V0H172ZM424 821H705Q785 821 846 832T948 870T1011 942T1032 1055Q1032 1120 1011 1163T949 1233T846 1271T702 1282H424V821Z"/><glyph unicode="ŕ" horiz-adv-x="844" d="M732 1542H1002L705 1202H540L732 1542ZM141 0V1087H393V909H397Q422 950 457 986T540 1049T649 1092T788 1108H805L797 877Q792 878 783 878T764 879T744 880T729 881Q668 881 618 868T527 829T453 768T393 688V0H141Z"/><glyph unicode="Ŗ" horiz-adv-x="1415" d="M680 -338H582V-92H834V-307L721 -555H614L680 -338ZM172 0V1516H715Q850 1516 956 1489T1134 1405T1245 1263T1284 1061Q1284 970 1261 899T1195 775T1090 686T948 631L1305 0H1030L690 598H424V0H172ZM424 821H705Q785 821 846 832T948 870T1011 942T1032 1055Q1032 1120 1011 1163T949 1233T846 1271T702 1282H424V821Z"/><glyph unicode="ŗ" horiz-adv-x="844" d="M499 -338H401V-92H653V-307L540 -555H433L499 -338ZM141 0V1087H393V909H397Q422 950 457 986T540 1049T649 1092T788 1108H805L797 877Q792 878 783 878T764 879T744 880T729 881Q668 881 618 868T527 829T453 768T393 688V0H141Z"/><glyph unicode="Ř" horiz-adv-x="1415" d="M355 1951H502L707 1779L912 1951H1057L793 1611H619L355 1951ZM172 0V1516H715Q850 1516 956 1489T1134 1405T1245 1263T1284 1061Q1284 970 1261 899T1195 775T1090 686T948 631L1305 0H1030L690 598H424V0H172ZM424 821H705Q785 821 846 832T948 870T1011 942T1032 1055Q1032 1120 1011 1163T949 1233T846 1271T702 1282H424V821Z"/><glyph unicode="ř" horiz-adv-x="844" d="M327 1548H474L679 1376L884 1548H1029L765 1208H591L327 1548ZM141 0V1087H393V909H397Q422 950 457 986T540 1049T649 1092T788 1108H805L797 877Q792 878 783 878T764 879T744 880T729 881Q668 881 618 868T527 829T453 768T393 688V0H141Z"/><glyph unicode="Ś" horiz-adv-x="1380" d="M741 1945H1011L714 1605H549L741 1945ZM702 -29Q589 -29 493 -1T320 77T186 199T92 356L295 463Q363 329 466 264T713 199Q782 199 839 210T936 246T999 307T1022 395Q1022 444 1004 481T944 550T838 607T678 662Q605 683 538 705T411 753T304 813T222 889T169 988T150 1116Q150 1213 187 1292T293 1427T457 1513T668 1544Q780 1544 869 1518T1029 1448T1149 1345T1235 1219L1049 1090Q980 1204 885 1257T666 1311Q539 1311 470 1267T401 1139Q401 1086 422 1049T486 982T597 929T758 877Q865 845 959 809T1123 721T1233 594T1274 414Q1274 321 1236 240T1124 100T944 6T702 -29Z"/><glyph unicode="ś" horiz-adv-x="1071" d="M588 1542H858L561 1202H396L588 1542ZM539 -23Q464 -23 394 -10T261 26T148 80T59 150L197 303Q228 277 265 254T346 213T438 185T539 174Q640 174 698 202T756 299Q756 332 737 354T684 393T607 421T514 444Q467 455 419 467T325 496T239 538T169 596T122 678T104 788Q104 860 133 919T216 1020T343 1085T508 1108Q586 1108 649 1098T766 1067T866 1019T954 954L834 791Q804 815 766 836T687 874T605 899T526 909Q474 909 439 901T382 877T351 842T342 799Q342 766 361 744T412 705T488 678T580 655Q626 645 675 633T770 605T856 564T927 506T975 424T993 313Q993 227 957 164T859 60T715 -2T539 -23Z"/><glyph unicode="Ŝ" horiz-adv-x="1380" d="M592 1945H766L1030 1605H883L678 1777L473 1605H328L592 1945ZM702 -29Q589 -29 493 -1T320 77T186 199T92 356L295 463Q363 329 466 264T713 199Q782 199 839 210T936 246T999 307T1022 395Q1022 444 1004 481T944 550T838 607T678 662Q605 683 538 705T411 753T304 813T222 889T169 988T150 1116Q150 1213 187 1292T293 1427T457 1513T668 1544Q780 1544 869 1518T1029 1448T1149 1345T1235 1219L1049 1090Q980 1204 885 1257T666 1311Q539 1311 470 1267T401 1139Q401 1086 422 1049T486 982T597 929T758 877Q865 845 959 809T1123 721T1233 594T1274 414Q1274 321 1236 240T1124 100T944 6T702 -29Z"/><glyph unicode="ŝ" horiz-adv-x="1071" d="M687 1542H861L1125 1202H978L773 1374L568 1202H423L687 1542ZM539 -23Q464 -23 394 -10T261 26T148 80T59 150L197 303Q228 277 265 254T346 213T438 185T539 174Q640 174 698 202T756 299Q756 332 737 354T684 393T607 421T514 444Q467 455 419 467T325 496T239 538T169 596T122 678T104 788Q104 860 133 919T216 1020T343 1085T508 1108Q586 1108 649 1098T766 1067T866 1019T954 954L834 791Q804 815 766 836T687 874T605 899T526 909Q474 909 439 901T382 877T351 842T342 799Q342 766 361 744T412 705T488 678T580 655Q626 645 675 633T770 605T856 564T927 506T975 424T993 313Q993 227 957 164T859 60T715 -2T539 -23Z"/><glyph unicode="Ş" horiz-adv-x="1380" d="M702 -29Q589 -29 493 -1T320 77T186 199T92 356L295 463Q363 329 466 264T713 199Q782 199 839 210T936 246T999 307T1022 395Q1022 444 1004 481T944 550T838 607T678 662Q605 683 538 705T411 753T304 813T222 889T169 988T150 1116Q150 1213 187 1292T293 1427T457 1513T668 1544Q780 1544 869 1518T1029 1448T1149 1345T1235 1219L1049 1090Q980 1204 885 1257T666 1311Q539 1311 470 1267T401 1139Q401 1086 422 1049T486 982T597 929T758 877Q865 845 959 809T1123 721T1233 594T1274 414Q1274 321 1236 240T1124 100T944 6T702 -29ZM704 -408Q623 -408 550 -388T422 -332L473 -250Q519 -281 574 -296T682 -311Q805 -311 805 -231Q805 -199 785 -184T731 -168Q703 -168 681 -178T637 -205L565 -170L616 0H733L704 -100Q726 -86 756 -78T829 -70Q857 -70 883 -79T930 -106T963 -150T975 -211Q975 -259 954 -296T896 -358T810 -395T704 -408Z"/><glyph unicode="ş" horiz-adv-x="1071" d="M539 -23Q464 -23 394 -10T261 26T148 80T59 150L197 303Q228 277 265 254T346 213T438 185T539 174Q640 174 698 202T756 299Q756 332 737 354T684 393T607 421T514 444Q467 455 419 467T325 496T239 538T169 596T122 678T104 788Q104 860 133 919T216 1020T343 1085T508 1108Q586 1108 649 1098T766 1067T866 1019T954 954L834 791Q804 815 766 836T687 874T605 899T526 909Q474 909 439 901T382 877T351 842T342 799Q342 766 361 744T412 705T488 678T580 655Q626 645 675 633T770 605T856 564T927 506T975 424T993 313Q993 227 957 164T859 60T715 -2T539 -23ZM551 -408Q470 -408 397 -388T269 -332L320 -250Q366 -281 421 -296T529 -311Q652 -311 652 -231Q652 -199 632 -184T578 -168Q550 -168 528 -178T484 -205L412 -170L463 0H580L551 -100Q573 -86 603 -78T676 -70Q704 -70 730 -79T777 -106T810 -150T822 -211Q822 -259 801 -296T743 -358T657 -395T551 -408Z"/><glyph unicode="Š" horiz-adv-x="1380" d="M338 1962H485L690 1790L895 1962H1040L776 1622H602L338 1962ZM702 -29Q589 -29 493 -1T320 77T186 199T92 356L295 463Q363 329 466 264T713 199Q782 199 839 210T936 246T999 307T1022 395Q1022 444 1004 481T944 550T838 607T678 662Q605 683 538 705T411 753T304 813T222 889T169 988T150 1116Q150 1213 187 1292T293 1427T457 1513T668 1544Q780 1544 869 1518T1029 1448T1149 1345T1235 1219L1049 1090Q980 1204 885 1257T666 1311Q539 1311 470 1267T401 1139Q401 1086 422 1049T486 982T597 929T758 877Q865 845 959 809T1123 721T1233 594T1274 414Q1274 321 1236 240T1124 100T944 6T702 -29Z"/><glyph unicode="š" horiz-adv-x="1071" d="M442 1548H589L794 1376L999 1548H1144L880 1208H706L442 1548ZM539 -23Q464 -23 394 -10T261 26T148 80T59 150L197 303Q228 277 265 254T346 213T438 185T539 174Q640 174 698 202T756 299Q756 332 737 354T684 393T607 421T514 444Q467 455 419 467T325 496T239 538T169 596T122 678T104 788Q104 860 133 919T216 1020T343 1085T508 1108Q586 1108 649 1098T766 1067T866 1019T954 954L834 791Q804 815 766 836T687 874T605 899T526 909Q474 909 439 901T382 877T351 842T342 799Q342 766 361 744T412 705T488 678T580 655Q626 645 675 633T770 605T856 564T927 506T975 424T993 313Q993 227 957 164T859 60T715 -2T539 -23Z"/><glyph unicode="Ţ" horiz-adv-x="1300" d="M625 -338H527V-92H779V-307L666 -555H559L625 -338ZM522 0V1278H55V1516H1245V1278H778V0H522Z"/><glyph unicode="ţ" horiz-adv-x="821" d="M352 -338H254V-92H506V-307L393 -555H286L352 -338ZM563 -14Q459 -14 394 5T292 61T241 155T227 285V887H39V1087H227V1466H479V1087H760V887H479V348Q479 304 486 273T512 222T561 193T639 184Q667 184 698 188T748 199V0Q738 -2 717 -4T670 -9T615 -12T563 -14Z"/><glyph unicode="Ť" horiz-adv-x="1300" d="M299 1951H446L651 1779L856 1951H1001L737 1611H563L299 1951ZM522 0V1278H55V1516H1245V1278H778V0H522Z"/><glyph unicode="ť" horiz-adv-x="821" d="M686 1450H590V1688H834V1481L725 1241H623L686 1450ZM563 -14Q459 -14 394 5T292 61T241 155T227 285V887H39V1087H227V1466H479V1087H760V887H479V348Q479 304 486 273T512 222T561 193T639 184Q667 184 698 188T748 199V0Q738 -2 717 -4T670 -9T615 -12T563 -14Z"/><glyph unicode="Ŧ" horiz-adv-x="1300" d="M55 819H522V1278H55V1516H1245V1278H778V819H1245V623H778V0H522V623H55V819Z"/><glyph unicode="ŧ" horiz-adv-x="821" d="M35 647H223V887H35V1087H223V1466H475V1087H756V887H475V647H756V477H475V348Q475 304 482 273T507 222T555 193T633 184Q662 184 693 188T743 199V0Q732 -2 711 -4T664 -9T610 -12T559 -14Q455 -14 390 5T288 61T237 155T223 285V477H35V647Z"/><glyph unicode="Ũ" horiz-adv-x="1477" d="M739 -25Q583 -25 472 17T289 135T185 317T152 553V1516H408V575Q408 488 427 420T487 305T591 232T741 207Q828 207 890 231T993 302T1053 417T1073 573V1516H1325V555Q1325 426 1289 319T1179 136T996 17T739 -25ZM893 1591Q842 1591 802 1609T726 1648T660 1688T596 1706Q553 1706 533 1681T512 1595H371Q371 1670 385 1724T427 1812T494 1863T584 1880Q635 1880 675 1862T751 1823T818 1783T883 1765Q925 1765 946 1790T967 1876H1108Q1108 1727 1051 1659T893 1591Z"/><glyph unicode="ũ" horiz-adv-x="1235" d="M442 -20Q371 -20 313 1T214 63T151 165T129 307V1087H383V367Q383 276 422 233T545 190Q628 190 699 229T840 332V1087H1094V0H840V147Q814 120 776 91T689 37T578 -4T442 -20ZM772 1188Q721 1188 681 1206T605 1245T539 1285T475 1303Q432 1303 412 1278T391 1192H250Q250 1267 264 1321T306 1409T373 1460T463 1477Q514 1477 554 1459T630 1420T697 1380T762 1362Q804 1362 825 1387T846 1473H987Q987 1324 930 1256T772 1188Z"/><glyph unicode="Ū" horiz-adv-x="1477" d="M739 -25Q583 -25 472 17T289 135T185 317T152 553V1516H408V575Q408 488 427 420T487 305T591 232T741 207Q828 207 890 231T993 302T1053 417T1073 573V1516H1325V555Q1325 426 1289 319T1179 136T996 17T739 -25ZM418 1785H1056V1599H418V1785Z"/><glyph unicode="ū" horiz-adv-x="1235" d="M442 -20Q371 -20 313 1T214 63T151 165T129 307V1087H383V367Q383 276 422 233T545 190Q628 190 699 229T840 332V1087H1094V0H840V147Q814 120 776 91T689 37T578 -4T442 -20ZM297 1382H935V1196H297V1382Z"/><glyph unicode="Ŭ" horiz-adv-x="1477" d="M739 -25Q583 -25 472 17T289 135T185 317T152 553V1516H408V575Q408 488 427 420T487 305T591 232T741 207Q828 207 890 231T993 302T1053 417T1073 573V1516H1325V555Q1325 426 1289 319T1179 136T996 17T739 -25ZM739 1589Q660 1589 599 1616T494 1691T427 1805T399 1951H540Q547 1894 565 1857T610 1797T670 1766T739 1757Q775 1757 808 1766T868 1797T914 1856T940 1951H1079Q1075 1872 1051 1806T984 1691T880 1616T739 1589Z"/><glyph unicode="ŭ" horiz-adv-x="1235" d="M442 -20Q371 -20 313 1T214 63T151 165T129 307V1087H383V367Q383 276 422 233T545 190Q628 190 699 229T840 332V1087H1094V0H840V147Q814 120 776 91T689 37T578 -4T442 -20ZM616 1186Q537 1186 476 1213T371 1288T304 1402T276 1548H417Q424 1491 442 1454T487 1394T547 1363T616 1354Q652 1354 685 1363T745 1394T791 1453T817 1548H956Q952 1469 928 1403T861 1288T757 1213T616 1186Z"/><glyph unicode="Ů" horiz-adv-x="1477" d="M737 1589Q692 1589 654 1605T588 1649T544 1715T528 1798Q528 1842 544 1880T588 1945T654 1989T737 2005Q782 2005 820 1989T887 1946T930 1880T946 1798Q946 1753 931 1715T887 1649T821 1605T737 1589ZM737 1693Q782 1693 809 1722T837 1798Q837 1843 810 1872T737 1902Q694 1902 666 1873T637 1798Q637 1751 665 1722T737 1693ZM739 -25Q583 -25 472 17T289 135T185 317T152 553V1516H408V575Q408 488 427 420T487 305T591 232T741 207Q828 207 890 231T993 302T1053 417T1073 573V1516H1325V555Q1325 426 1289 319T1179 136T996 17T739 -25Z"/><glyph unicode="ů" horiz-adv-x="1235" d="M616 1186Q571 1186 533 1202T467 1246T423 1312T407 1395Q407 1439 423 1477T467 1542T533 1586T616 1602Q661 1602 699 1586T766 1543T809 1477T825 1395Q825 1350 810 1312T766 1246T700 1202T616 1186ZM616 1290Q661 1290 688 1319T716 1395Q716 1440 689 1469T616 1499Q573 1499 545 1470T516 1395Q516 1348 544 1319T616 1290ZM442 -20Q371 -20 313 1T214 63T151 165T129 307V1087H383V367Q383 276 422 233T545 190Q628 190 699 229T840 332V1087H1094V0H840V147Q814 120 776 91T689 37T578 -4T442 -20Z"/><glyph unicode="Ű" horiz-adv-x="1477" d="M739 -25Q583 -25 472 17T289 135T185 317T152 553V1516H408V575Q408 488 427 420T487 305T591 232T741 207Q828 207 890 231T993 302T1053 417T1073 573V1516H1325V555Q1325 426 1289 319T1179 136T996 17T739 -25ZM623 1945H897L586 1605H418L623 1945ZM1000 1945H1274L953 1605H785L1000 1945Z"/><glyph unicode="ű" horiz-adv-x="1235" d="M442 -20Q371 -20 313 1T214 63T151 165T129 307V1087H383V367Q383 276 422 233T545 190Q628 190 699 229T840 332V1087H1094V0H840V147Q814 120 776 91T689 37T578 -4T442 -20ZM514 1542H788L477 1202H309L514 1542ZM891 1542H1165L844 1202H676L891 1542Z"/><glyph unicode="Ų" horiz-adv-x="1477" d="M768 -383Q665 -383 610 -342T555 -225Q555 -193 569 -161T609 -97T667 -38T740 14H881Q806 -37 770 -87T734 -186Q734 -204 738 -219T754 -246T784 -265T832 -272Q889 -272 931 -257T1012 -223L1063 -303Q1000 -340 928 -361T768 -383ZM739 -25Q583 -25 472 17T289 135T185 317T152 553V1516H408V575Q408 488 427 420T487 305T591 232T741 207Q828 207 890 231T993 302T1053 417T1073 573V1516H1325V555Q1325 426 1289 319T1179 136T996 17T739 -25Z"/><glyph unicode="ų" horiz-adv-x="1235" d="M882 -383Q779 -383 724 -342T669 -225Q669 -193 683 -161T723 -97T781 -38T854 14H995Q920 -37 884 -87T848 -186Q848 -204 852 -219T868 -246T898 -265T946 -272Q1003 -272 1045 -257T1126 -223L1177 -303Q1114 -340 1042 -361T882 -383ZM442 -20Q371 -20 313 1T214 63T151 165T129 307V1087H383V367Q383 276 422 233T545 190Q628 190 699 229T840 332V1087H1094V0H840V147Q814 120 776 91T689 37T578 -4T442 -20Z"/><glyph unicode="Ŵ" horiz-adv-x="1933" d="M879 1945H1053L1317 1605H1170L965 1777L760 1605H615L879 1945ZM463 0L59 1516H317L510 731Q533 640 553 555T590 379H594Q609 467 629 552T672 729L854 1516H1100L1288 725Q1300 677 1311 635T1332 551T1351 469T1368 379H1372Q1381 428 1389 469T1407 549T1425 630T1446 719L1634 1516H1874L1475 0H1251L979 1161H975L688 0H463Z"/><glyph unicode="ŵ" horiz-adv-x="1565" d="M694 1542H868L1132 1202H985L780 1374L575 1202H430L694 1542ZM348 0L25 1087H281L399 637Q411 591 421 551T442 470T461 387T481 291H485Q497 346 507 390T527 474T547 554T571 641L686 1087H891L1012 633Q1025 588 1035 548T1055 469T1074 386T1096 291H1100Q1112 344 1122 386T1142 468T1162 545T1186 629L1309 1087H1538L1214 0H979L782 756H778L582 0H348Z"/><glyph unicode="Ŷ" horiz-adv-x="1354" d="M547 0V653L31 1516H301L680 870L1057 1516H1323L805 653V0H547ZM588 1945H762L1026 1605H879L674 1777L469 1605H324L588 1945Z"/><glyph unicode="ŷ" horiz-adv-x="1120" d="M256 -422Q159 -422 99 -411T-2 -389L55 -186Q78 -193 126 -201T240 -209Q307 -209 346 -181T412 -86L442 -6L25 1087H287L567 295H571L850 1087H1100L637 -119Q610 -190 578 -246T501 -342T397 -401T256 -422ZM481 1542H655L919 1202H772L567 1374L362 1202H217L481 1542Z"/><glyph unicode="Ÿ" horiz-adv-x="1354" d="M547 0V653L31 1516H301L680 870L1057 1516H1323L805 653V0H547ZM358 1847H587V1599H358V1847ZM763 1847H993V1599H763V1847Z"/><glyph unicode="Ź" horiz-adv-x="1321" d="M688 1945H958L661 1605H496L688 1945ZM72 0V178L909 1300H127V1516H1231V1331L403 209H1231V0H72Z"/><glyph unicode="ź" horiz-adv-x="1065" d="M586 1542H856L559 1202H394L586 1542ZM70 0V145L649 887H113V1087H965V936L383 195H999V0H70Z"/><glyph unicode="Ż" horiz-adv-x="1321" d="M72 0V178L909 1300H127V1516H1231V1331L403 209H1231V0H72ZM524 1849H794V1622H524V1849Z"/><glyph unicode="ż" horiz-adv-x="1065" d="M70 0V145L649 887H113V1087H965V936L383 195H999V0H70ZM397 1446H667V1219H397V1446Z"/><glyph unicode="Ž" horiz-adv-x="1321" d="M318 1962H465L670 1790L875 1962H1020L756 1622H582L318 1962ZM72 0V178L909 1300H127V1516H1231V1331L403 209H1231V0H72Z"/><glyph unicode="ž" horiz-adv-x="1065" d="M444 1548H591L796 1376L1001 1548H1146L882 1208H708L444 1548ZM70 0V145L649 887H113V1087H965V936L383 195H999V0H70Z"/><glyph unicode="ƒ" horiz-adv-x="788" d="M-166 -225Q-154 -228 -128 -230T-82 -233Q-3 -233 45 -196T104 -72L223 813H35L57 995H246L272 1198Q281 1267 304 1326T373 1428T491 1497T668 1522Q686 1522 709 1521T753 1517T792 1514T817 1511L793 1327Q780 1330 755 1332T709 1335Q675 1335 644 1330T587 1309T546 1266T524 1194L498 995H735L713 813H475L352 -113Q344 -177 321 -232T253 -327T137 -391T-39 -414Q-57 -414 -80 -413T-125 -411T-164 -407T-188 -403L-166 -225Z"/><glyph unicode="Ș" horiz-adv-x="1380" d="M664 -338H566V-92H818V-307L705 -555H598L664 -338ZM702 -29Q589 -29 493 -1T320 77T186 199T92 356L295 463Q363 329 466 264T713 199Q782 199 839 210T936 246T999 307T1022 395Q1022 444 1004 481T944 550T838 607T678 662Q605 683 538 705T411 753T304 813T222 889T169 988T150 1116Q150 1213 187 1292T293 1427T457 1513T668 1544Q780 1544 869 1518T1029 1448T1149 1345T1235 1219L1049 1090Q980 1204 885 1257T666 1311Q539 1311 470 1267T401 1139Q401 1086 422 1049T486 982T597 929T758 877Q865 845 959 809T1123 721T1233 594T1274 414Q1274 321 1236 240T1124 100T944 6T702 -29Z"/><glyph unicode="ș" horiz-adv-x="1071" d="M508 -338H410V-92H662V-307L549 -555H442L508 -338ZM539 -23Q464 -23 394 -10T261 26T148 80T59 150L197 303Q228 277 265 254T346 213T438 185T539 174Q640 174 698 202T756 299Q756 332 737 354T684 393T607 421T514 444Q467 455 419 467T325 496T239 538T169 596T122 678T104 788Q104 860 133 919T216 1020T343 1085T508 1108Q586 1108 649 1098T766 1067T866 1019T954 954L834 791Q804 815 766 836T687 874T605 899T526 909Q474 909 439 901T382 877T351 842T342 799Q342 766 361 744T412 705T488 678T580 655Q626 645 675 633T770 605T856 564T927 506T975 424T993 313Q993 227 957 164T859 60T715 -2T539 -23Z"/><glyph unicode="Ț" horiz-adv-x="1300" d="M625 -338H527V-92H779V-307L666 -555H559L625 -338ZM522 0V1278H55V1516H1245V1278H778V0H522Z"/><glyph unicode="ț" horiz-adv-x="821" d="M352 -338H254V-92H506V-307L393 -555H286L352 -338ZM563 -14Q459 -14 394 5T292 61T241 155T227 285V887H39V1087H227V1466H479V1087H760V887H479V348Q479 304 486 273T512 222T561 193T639 184Q667 184 698 188T748 199V0Q738 -2 717 -4T670 -9T615 -12T563 -14Z"/><glyph unicode="ə" horiz-adv-x="1157" d="M551 1108Q653 1108 747 1076T915 976T1031 800T1075 543Q1075 440 1053 358T991 212T901 105T792 32T674 -10T557 -23Q465 -23 380 6T227 105T120 286T80 565V625H823Q819 698 796 751T734 839T644 890T532 907Q479 907 437 899T358 874T290 834T227 780L94 911Q179 1005 291 1056T551 1108ZM311 436Q322 311 383 247T559 182Q605 182 648 196T726 240T785 318T819 436H311Z"/><glyph unicode="ˆ" horiz-adv-x="1096" d="M461 1542H635L899 1202H752L547 1374L342 1202H197L461 1542Z"/><glyph unicode="ˇ" horiz-adv-x="1096" d="M197 1548H344L549 1376L754 1548H899L635 1208H461L197 1548Z"/><glyph unicode="˘" horiz-adv-x="1024" d="M512 1186Q433 1186 372 1213T267 1288T200 1402T172 1548H313Q320 1491 338 1454T383 1394T443 1363T512 1354Q548 1354 581 1363T641 1394T687 1453T713 1548H852Q848 1469 824 1403T757 1288T653 1213T512 1186Z"/><glyph unicode="˙" horiz-adv-x="1024" d="M377 1446H647V1219H377V1446Z"/><glyph unicode="˚" horiz-adv-x="1106" d="M553 1186Q508 1186 470 1202T404 1246T360 1312T344 1395Q344 1439 360 1477T404 1542T470 1586T553 1602Q598 1602 636 1586T703 1543T746 1477T762 1395Q762 1350 747 1312T703 1246T637 1202T553 1186ZM553 1290Q598 1290 625 1319T653 1395Q653 1440 626 1469T553 1499Q510 1499 482 1470T453 1395Q453 1348 481 1319T553 1290Z"/><glyph unicode="˛" horiz-adv-x="1024" d="M532 -383Q429 -383 374 -342T319 -225Q319 -193 333 -161T373 -97T431 -38T504 14H645Q570 -37 534 -87T498 -186Q498 -204 502 -219T518 -246T548 -265T596 -272Q653 -272 695 -257T776 -223L827 -303Q764 -340 692 -361T532 -383Z"/><glyph unicode="˜" horiz-adv-x="1055" d="M682 1188Q631 1188 591 1206T515 1245T449 1285T385 1303Q342 1303 322 1278T301 1192H160Q160 1267 174 1321T216 1409T283 1460T373 1477Q424 1477 464 1459T540 1420T607 1380T672 1362Q714 1362 735 1387T756 1473H897Q897 1324 840 1256T682 1188Z"/><glyph unicode="˝" horiz-adv-x="1061" d="M334 1542H608L297 1202H129L334 1542ZM711 1542H985L664 1202H496L711 1542Z"/><glyph unicode="̄" horiz-adv-x="1024" d="M193 1382H831V1196H193V1382Z"/><glyph unicode="̦" horiz-adv-x="565" d="M256 -338H158V-92H410V-307L297 -555H190L256 -338Z"/><glyph unicode="Δ" horiz-adv-x="1536" d="M76 0L652 1536H884L1456 0H76ZM352 148H1164L752 1256L352 148Z"/><glyph unicode="Ω" horiz-adv-x="1664" d="M832 1376Q644 1376 510 1234T376 836Q376 592 464 432T724 180V0H88V196H536Q416 240 304 406T192 848Q192 1112 358 1330T832 1548Q1140 1548 1306 1338T1472 848Q1472 572 1360 406T1128 196H1576V0H940V180Q1112 272 1200 432T1288 836Q1288 1044 1162 1210T832 1376Z"/><glyph unicode="μ" horiz-adv-x="1245" d="M141 -410V1087H393V369Q393 278 431 232T557 186Q599 186 637 196T711 225T782 270T852 328V1087H1104V0H852V172Q823 141 790 112T718 58T635 17T541 -8Q496 -11 459 -5T393 25V-410H141Z"/><glyph unicode="π" horiz-adv-x="1408" d="M296 0V1028H12V1176H1316V1028H996V344Q996 228 1042 184T1152 140Q1200 140 1232 142T1296 156V28Q1248 4 1206 -6T1088 -16Q960 -16 886 64T812 336V1028H484V0H296Z"/><glyph unicode="Ẁ" horiz-adv-x="1933" d="M463 0L59 1516H317L510 731Q533 640 553 555T590 379H594Q609 467 629 552T672 729L854 1516H1100L1288 725Q1300 677 1311 635T1332 551T1351 469T1368 379H1372Q1381 428 1389 469T1407 549T1425 630T1446 719L1634 1516H1874L1475 0H1251L979 1161H975L688 0H463ZM654 1945H926L1119 1605H953L654 1945Z"/><glyph unicode="ẁ" horiz-adv-x="1565" d="M348 0L25 1087H281L399 637Q411 591 421 551T442 470T461 387T481 291H485Q497 346 507 390T527 474T547 554T571 641L686 1087H891L1012 633Q1025 588 1035 548T1055 469T1074 386T1096 291H1100Q1112 344 1122 386T1142 468T1162 545T1186 629L1309 1087H1538L1214 0H979L782 756H778L582 0H348ZM410 1542H682L875 1202H709L410 1542Z"/><glyph unicode="Ẃ" horiz-adv-x="1933" d="M1020 1945H1290L993 1605H828L1020 1945ZM463 0L59 1516H317L510 731Q533 640 553 555T590 379H594Q609 467 629 552T672 729L854 1516H1100L1288 725Q1300 677 1311 635T1332 551T1351 469T1368 379H1372Q1381 428 1389 469T1407 549T1425 630T1446 719L1634 1516H1874L1475 0H1251L979 1161H975L688 0H463Z"/><glyph unicode="ẃ" horiz-adv-x="1565" d="M895 1542H1165L868 1202H703L895 1542ZM348 0L25 1087H281L399 637Q411 591 421 551T442 470T461 387T481 291H485Q497 346 507 390T527 474T547 554T571 641L686 1087H891L1012 633Q1025 588 1035 548T1055 469T1074 386T1096 291H1100Q1112 344 1122 386T1142 468T1162 545T1186 629L1309 1087H1538L1214 0H979L782 756H778L582 0H348Z"/><glyph unicode="Ẅ" horiz-adv-x="1933" d="M645 1847H874V1599H645V1847ZM1050 1847H1280V1599H1050V1847ZM463 0L59 1516H317L510 731Q533 640 553 555T590 379H594Q609 467 629 552T672 729L854 1516H1100L1288 725Q1300 677 1311 635T1332 551T1351 469T1368 379H1372Q1381 428 1389 469T1407 549T1425 630T1446 719L1634 1516H1874L1475 0H1251L979 1161H975L688 0H463Z"/><glyph unicode="ẅ" horiz-adv-x="1565" d="M461 1444H690V1196H461V1444ZM866 1444H1096V1196H866V1444ZM348 0L25 1087H281L399 637Q411 591 421 551T442 470T461 387T481 291H485Q497 346 507 390T527 474T547 554T571 641L686 1087H891L1012 633Q1025 588 1035 548T1055 469T1074 386T1096 291H1100Q1112 344 1122 386T1142 468T1162 545T1186 629L1309 1087H1538L1214 0H979L782 756H778L582 0H348Z"/><glyph unicode="Ỳ" horiz-adv-x="1354" d="M547 0V653L31 1516H301L680 870L1057 1516H1323L805 653V0H547ZM353 1945H625L818 1605H652L353 1945Z"/><glyph unicode="ỳ" horiz-adv-x="1120" d="M256 -422Q159 -422 99 -411T-2 -389L55 -186Q78 -193 126 -201T240 -209Q307 -209 346 -181T412 -86L442 -6L25 1087H287L567 295H571L850 1087H1100L637 -119Q610 -190 578 -246T501 -342T397 -401T256 -422ZM470 1542H742L935 1202H769L470 1542Z"/><glyph unicode=" " horiz-adv-x="1024"/><glyph unicode=" " horiz-adv-x="2048"/><glyph unicode=" " horiz-adv-x="1331"/><glyph unicode=" " horiz-adv-x="2662"/><glyph unicode=" " horiz-adv-x="410"/><glyph unicode="‒" horiz-adv-x="1331" d="M123 530V748H1208V530H123Z"/><glyph unicode="–" horiz-adv-x="1331" d="M123 530V748H1208V530H123Z"/><glyph unicode="—" horiz-adv-x="1915" d="M123 530V748H1792V530H123Z"/><glyph unicode="―" horiz-adv-x="2048" d="M0 748H2048V530H0V748Z"/><glyph unicode="‘" horiz-adv-x="565" d="M147 1020V1264L279 1516H395L324 1286H418V1020H147Z"/><glyph unicode="’" horiz-adv-x="565" d="M170 1020L242 1249H147V1516H418V1272L287 1020H170Z"/><glyph unicode="‚" horiz-adv-x="565" d="M170 -229L242 0H147V266H418V23L287 -229H170Z"/><glyph unicode="“" horiz-adv-x="1010" d="M592 1020V1264L723 1516H840L768 1286H862V1020H592ZM147 1020V1264L279 1516H395L324 1286H418V1020H147Z"/><glyph unicode="”" horiz-adv-x="1010" d="M614 1020L686 1249H592V1516H862V1272L731 1020H614ZM170 1020L242 1249H147V1516H418V1272L287 1020H170Z"/><glyph unicode="„" horiz-adv-x="1010" d="M614 -229L686 0H592V266H862V23L731 -229H614ZM170 -229L242 0H147V266H418V23L287 -229H170Z"/><glyph unicode="†" horiz-adv-x="1204" d="M469 -410L510 801L78 772V1006L510 975L469 1516H735L694 975L1126 1006V772L694 801L735 -410H469Z"/><glyph unicode="‡" horiz-adv-x="1204" d="M469 -410L510 39L109 8V231L510 203L477 555L510 903L109 874V1098L510 1067L469 1516H735L694 1067L1096 1098V874L694 903L727 555L694 203L1096 231V8L694 39L735 -410H469Z"/><glyph unicode="•" horiz-adv-x="948" d="M473 455Q416 455 368 474T285 529T231 612T211 717Q211 774 230 822T285 906T368 961T473 981Q531 981 579 962T663 907T717 823T737 717Q737 660 718 612T663 529T580 475T473 455Z"/><glyph unicode="…" horiz-adv-x="1696" d="M1272 0V266H1554V0H1272ZM141 0V266H424V0H141ZM707 0V266H989V0H707Z"/><glyph unicode="‰" horiz-adv-x="3037" d="M485 580Q395 580 324 614T204 711T130 862T104 1057Q104 1167 131 1256T207 1408T328 1505T487 1540Q575 1540 645 1506T765 1410T840 1259T866 1061Q866 954 840 866T766 714T646 615T485 580ZM1669 -20Q1578 -20 1507 14T1388 111T1314 262T1288 457Q1288 567 1315 656T1391 807T1512 904T1671 938Q1759 938 1829 905T1948 809T2023 658T2050 461Q2050 354 2024 266T1949 114T1829 15T1669 -20ZM2552 -20Q2461 -20 2390 14T2271 111T2197 262T2171 457Q2171 567 2197 656T2274 807T2394 904T2554 938Q2641 938 2711 905T2831 809T2906 658T2933 461Q2933 354 2907 266T2832 114T2712 15T2552 -20ZM514 0L1419 1516H1640L735 0H514ZM1669 158Q1712 158 1743 179T1796 240T1827 334T1837 459Q1837 602 1796 680T1669 758Q1625 758 1593 737T1540 678T1509 584T1499 461Q1499 318 1541 238T1669 158ZM2552 158Q2595 158 2626 179T2679 240T2710 334T2720 459Q2720 602 2679 680T2552 758Q2508 758 2476 737T2423 678T2392 584T2382 461Q2382 318 2424 238T2552 158ZM487 760Q529 760 560 781T612 841T643 935T653 1059Q653 1202 612 1280T485 1358Q442 1358 411 1337T358 1278T327 1184T317 1061Q317 917 359 839T487 760Z"/><glyph unicode="′" horiz-adv-x="514" d="M164 1380L186 1516H410L281 979H127L164 1380Z"/><glyph unicode="″" horiz-adv-x="895" d="M164 1380L186 1516H410L281 979H127L164 1380ZM545 1380L567 1516H791L662 979H508L545 1380Z"/><glyph unicode="‹" horiz-adv-x="723" d="M391 0L66 545L391 1087H637L324 545L637 0H391Z"/><glyph unicode="›" horiz-adv-x="723" d="M84 0L399 545L84 1087H330L657 545L330 0H84Z"/><glyph unicode="⁄" horiz-adv-x="1049" d="M-33 0L860 1516H1081L188 0H-33Z"/><glyph unicode="⁰" horiz-adv-x="1038" d="M520 535Q422 535 348 570T222 670T145 826T119 1032Q119 1145 145 1237T222 1396T347 1498T520 1534Q617 1534 692 1498T818 1396T895 1238T922 1032Q922 918 896 827T818 670T692 570T520 535ZM520 698Q620 698 667 783T715 1032Q715 1193 666 1279T520 1366Q419 1366 372 1279T324 1032Q324 868 372 783T520 698Z"/><glyph unicode="⁴" horiz-adv-x="969" d="M539 764H100V893L528 1516H741V926H895V764H741V551H539V764ZM549 915V1284L301 915H549Z"/><glyph unicode="⁵" horiz-adv-x="924" d="M444 535Q382 535 331 545T236 576T156 623T88 686L188 813Q234 760 301 727T440 694Q487 694 522 707T580 745T615 802T627 874Q627 961 581 1005T461 1049Q405 1049 365 1027T287 956L141 1004L178 1516H764L752 1352H336L319 1126Q345 1155 393 1174T516 1194Q583 1194 640 1174T738 1114T803 1014T827 874Q827 790 799 727T721 621T600 557T444 535Z"/><glyph unicode="⁶" horiz-adv-x="975" d="M512 535Q420 535 347 565T224 655T146 807T119 1020Q119 1153 151 1250T239 1410T373 1503T543 1534Q646 1534 720 1507T840 1442L752 1298Q705 1332 656 1350T541 1368Q432 1368 379 1298T319 1075Q344 1097 369 1115T425 1146T491 1166T571 1174Q641 1174 698 1155T796 1096T859 1000T881 866Q881 793 857 733T785 628T669 560T512 535ZM514 690Q596 690 640 735T684 858Q684 936 645 979T518 1022Q453 1022 407 997T322 928Q331 810 382 750T514 690Z"/><glyph unicode="⁷" horiz-adv-x="852" d="M545 1346H92V1516H762V1362L391 551H178L545 1346Z"/><glyph unicode="⁸" horiz-adv-x="958" d="M479 535Q386 535 314 553T194 606T120 689T94 797Q94 844 110 882T156 953T224 1010T311 1057Q270 1078 239 1100T185 1149T151 1210T139 1288Q139 1335 160 1379T223 1457T330 1513T479 1534Q567 1534 631 1513T737 1458T799 1379T819 1288Q819 1211 772 1156T643 1063Q692 1041 732 1017T802 961T848 890T864 797Q864 738 839 690T765 608T644 554T479 535ZM477 672Q567 672 615 708T664 807Q664 867 611 910T459 993Q372 955 331 911T289 807Q289 745 338 709T477 672ZM496 1122Q564 1154 597 1186T631 1270Q631 1292 623 1313T596 1351T550 1378T483 1389Q445 1389 417 1380T370 1354T342 1317T332 1274Q332 1246 341 1226T370 1188T421 1156T496 1122Z"/><glyph unicode="⁹" horiz-adv-x="975" d="M432 535Q327 535 253 561T133 625L221 764Q269 730 319 713T432 696Q539 696 593 765T653 987Q629 966 604 949T549 918T484 897T403 889Q333 889 276 909T179 969T116 1067T94 1200Q94 1274 118 1335T189 1441T305 1509T463 1534Q554 1534 627 1504T751 1414T829 1262T856 1049Q856 915 822 818T729 658T593 565T432 535ZM455 1040Q520 1040 566 1066T651 1135Q642 1253 592 1313T461 1374Q377 1374 333 1329T289 1206Q289 1128 328 1084T455 1040Z"/><glyph unicode="₀" horiz-adv-x="1038" d="M520 -425Q422 -425 348 -390T222 -290T145 -134T119 72Q119 185 145 277T222 436T347 538T520 574Q617 574 692 538T818 436T895 278T922 72Q922 -42 896 -133T818 -290T692 -390T520 -425ZM520 -262Q620 -262 667 -177T715 72Q715 233 666 319T520 406Q419 406 372 319T324 72Q324 -92 372 -177T520 -262Z"/><glyph unicode="₁" horiz-adv-x="756" d="M136 -243H310V381Q275 364 229 354T138 343V494Q198 496 243 510T319 556H517V-243H673V-409H136V-243Z"/><glyph unicode="₂" horiz-adv-x="952" d="M125 -358Q125 -306 135 -254T177 -149T267 -41T422 74Q476 107 512 132T569 180T600 228T610 285Q610 339 579 370T485 402Q429 402 374 366T274 246L129 345Q195 460 282 518T492 576Q570 576 629 556T729 497T790 406T811 289Q811 245 800 204T760 123T684 43T563 -38Q462 -98 417 -147T360 -237H815V-407H125V-358Z"/><glyph unicode="₃" horiz-adv-x="952" d="M471 -423Q353 -423 257 -373T98 -225L227 -116Q254 -155 282 -181T340 -224T399 -246T457 -253Q542 -253 582 -215T623 -118Q623 -45 572 -9T399 27H330V175H403Q459 175 497 183T559 206T593 244T604 297Q604 344 572 374T471 404Q418 404 363 379T252 297L135 420Q209 498 298 537T487 576Q568 576 628 557T728 503T789 421T809 318Q809 249 773 192T657 109Q752 80 794 20T836 -122Q836 -193 810 -249T737 -343T622 -402T471 -423Z"/><glyph unicode="₄" horiz-adv-x="969" d="M539 -196H100V-67L528 556H741V-34H895V-196H741V-409H539V-196ZM549 -45V324L301 -45H549Z"/><glyph unicode="₅" horiz-adv-x="924" d="M444 -425Q382 -425 331 -415T236 -384T156 -337T88 -274L188 -147Q234 -200 301 -233T440 -266Q487 -266 522 -253T580 -215T615 -158T627 -86Q627 1 581 45T461 89Q405 89 365 67T287 -4L141 44L178 556H764L752 392H336L319 166Q345 195 393 214T516 234Q583 234 640 214T738 154T803 54T827 -86Q827 -170 799 -233T721 -339T600 -403T444 -425Z"/><glyph unicode="₆" horiz-adv-x="975" d="M512 -425Q420 -425 347 -395T224 -305T146 -153T119 60Q119 193 151 290T239 450T373 543T543 574Q646 574 720 547T840 482L752 338Q705 372 656 390T541 408Q432 408 379 338T319 115Q344 137 369 155T425 186T491 206T571 214Q641 214 698 195T796 136T859 40T881 -94Q881 -167 857 -227T785 -332T669 -400T512 -425ZM514 -270Q596 -270 640 -225T684 -102Q684 -24 645 19T518 62Q453 62 407 37T322 -32Q331 -150 382 -210T514 -270Z"/><glyph unicode="₇" horiz-adv-x="852" d="M545 386H92V556H762V402L391 -409H178L545 386Z"/><glyph unicode="₈" horiz-adv-x="958" d="M479 -425Q386 -425 314 -407T194 -354T120 -271T94 -163Q94 -116 110 -78T156 -7T224 50T311 97Q270 118 239 140T185 189T151 250T139 328Q139 375 160 419T223 497T330 553T479 574Q567 574 631 553T737 498T799 419T819 328Q819 251 772 196T643 103Q692 81 732 57T802 1T848 -70T864 -163Q864 -222 839 -270T765 -352T644 -406T479 -425ZM477 -288Q567 -288 615 -252T664 -153Q664 -93 611 -50T459 33Q372 -5 331 -49T289 -153Q289 -215 338 -251T477 -288ZM496 162Q564 194 597 226T631 310Q631 332 623 353T596 391T550 418T483 429Q445 429 417 420T370 394T342 357T332 314Q332 286 341 266T370 228T421 196T496 162Z"/><glyph unicode="₉" horiz-adv-x="975" d="M432 -425Q327 -425 253 -399T133 -335L221 -196Q269 -230 319 -247T432 -264Q539 -264 593 -195T653 27Q629 6 604 -11T549 -42T484 -63T403 -71Q333 -71 276 -51T179 9T116 107T94 240Q94 314 118 375T189 481T305 549T463 574Q554 574 627 544T751 454T829 302T856 89Q856 -45 822 -142T729 -302T593 -395T432 -425ZM455 80Q520 80 566 106T651 175Q642 293 592 353T461 414Q377 414 333 369T289 246Q289 168 328 124T455 80Z"/><glyph unicode="€" horiz-adv-x="1493" d="M268 819H43V989H287Q312 1132 367 1236T498 1409T669 1511T866 1544Q980 1544 1065 1514T1212 1429T1316 1296T1386 1124L1165 1049Q1144 1117 1121 1168T1064 1254T983 1306T868 1323Q742 1323 656 1241T535 989H915V819H516V766Q516 743 516 722T518 678H915V506H539Q571 348 651 268T872 188Q933 188 980 205T1065 258T1130 350T1180 485L1405 418Q1375 315 1328 232T1214 91T1062 2T870 -29Q763 -29 669 3T500 101T371 267T291 506H43V678H270Q268 698 268 719T268 762V819Z"/><glyph unicode="℗" horiz-adv-x="1772" d="M885 -29Q774 -29 673 -2T485 76T328 198T207 356T129 545T102 756Q102 866 129 967T207 1155T329 1315T488 1437T677 1516T889 1544Q1054 1544 1196 1484T1444 1317T1609 1068T1669 760Q1669 650 1642 549T1564 360T1442 200T1284 78T1096 -1T885 -29ZM889 90Q1028 90 1147 141T1353 282T1490 493T1540 756Q1540 896 1490 1018T1351 1230T1144 1373T885 1425Q745 1425 626 1374T418 1234T281 1023T231 760Q231 619 281 497T420 285T629 142T889 90ZM610 334V1192H928Q1002 1192 1061 1177T1161 1130T1225 1050T1247 934Q1247 864 1224 814T1157 730T1052 682T915 666H772V334H610ZM772 799H922Q1002 799 1044 828T1087 926Q1087 994 1044 1023T920 1053H772V799Z"/><glyph unicode="™" horiz-adv-x="1853" d="M870 649V1516H1108L1309 881L1511 1516H1747V649H1575V1262L1376 649H1229L1030 1257V649H870ZM309 649V1368H59V1516H737V1368H487V649H309Z"/><glyph unicode="Ω" horiz-adv-x="1664" d="M832 1376Q644 1376 510 1234T376 836Q376 592 464 432T724 180V0H88V196H536Q416 240 304 406T192 848Q192 1112 358 1330T832 1548Q1140 1548 1306 1338T1472 848Q1472 572 1360 406T1128 196H1576V0H940V180Q1112 272 1200 432T1288 836Q1288 1044 1162 1210T832 1376Z"/><glyph unicode="∂" horiz-adv-x="1280" d="M476 -32Q276 -32 166 80T56 360Q56 580 214 750T604 920Q700 920 802 886T964 816Q976 900 976 984Q976 1172 908 1278T720 1384Q592 1384 518 1356T368 1280L324 1444Q400 1488 492 1518T720 1548Q956 1548 1064 1394T1172 968Q1172 552 968 260T476 -32ZM488 128Q660 128 774 268T944 684Q912 716 824 748T648 780Q456 780 360 654T264 372Q264 264 318 196T488 128Z"/><glyph unicode="∆" horiz-adv-x="1536" d="M76 0L652 1536H884L1456 0H76ZM352 148H1164L752 1256L352 148Z"/><glyph unicode="∏" horiz-adv-x="1536" d="M332 0V1348H80V1524H1456V1348H1212V0H1004V1356H540V0H332Z"/><glyph unicode="∑" horiz-adv-x="1152" d="M1084 1524V1344H332L796 784L304 188H1080V0H40V172L560 788L68 1380V1524H1084Z"/><glyph unicode="−" horiz-adv-x="1315" d="M137 598V801H1180V598H137Z"/><glyph unicode="∕" horiz-adv-x="1049" d="M-33 0L860 1516H1081L188 0H-33Z"/><glyph unicode="∙" horiz-adv-x="575" d="M141 541V807H434V541H141Z"/><glyph unicode="√" horiz-adv-x="1161" d="M412 -2L18 1087H283L549 285H553L963 1516H1206L668 -2H412Z"/><glyph unicode="∞" horiz-adv-x="1606" d="M432 350Q252 350 157 447T61 735Q61 924 156 1023T432 1122Q549 1122 640 1064T803 899Q874 1005 964 1063T1174 1122Q1354 1122 1449 1023T1544 735Q1544 545 1449 448T1174 350Q1055 350 965 410T803 580Q731 472 640 411T432 350ZM444 532Q491 532 528 549T597 594T655 658T707 735Q682 775 656 812T598 878T529 924T444 942Q353 942 305 889T256 735Q256 636 304 584T444 532ZM1161 532Q1252 532 1301 584T1350 735Q1350 835 1301 888T1161 942Q1114 942 1077 925T1008 880T951 814T899 737Q924 697 950 660T1008 595T1076 549T1161 532Z"/><glyph unicode="∫" horiz-adv-x="1152" d="M-8 -392L56 -260Q80 -268 104 -274T164 -280Q212 -280 242 -246T288 -112L516 1224Q544 1384 636 1464T880 1544Q972 1544 1042 1522T1152 1476L1088 1304Q1044 1332 988 1356T868 1380Q776 1380 730 1322T672 1188L448 -224Q428 -332 350 -382T176 -432Q116 -432 66 -420T-8 -392Z"/><glyph unicode="≈" horiz-adv-x="1315" d="M903 246Q863 247 817 259T721 288T624 326T532 363T452 393T391 406Q370 407 353 403T324 389T303 359T291 311L139 336Q148 409 169 461T223 546T298 593T389 606Q431 605 478 593T574 564T671 526T762 488T840 458T901 444Q941 442 968 462T1001 539L1155 520Q1147 446 1125 394T1071 308T996 260T903 246ZM920 702Q880 703 834 715T739 744T642 782T551 819T471 849T410 862Q390 863 373 859T343 845T322 816T309 768L158 793Q165 866 186 918T240 1003T315 1050T408 1063Q450 1061 497 1049T593 1020T689 982T780 944T859 914T920 901Q961 899 987 919T1020 995L1174 977Q1165 903 1143 850T1088 764T1013 715T920 702Z"/><glyph unicode="≠" horiz-adv-x="1315" d="M420 342H139V528H487L610 809H139V995H680L840 1380H1057L897 995H1174V809H829L705 528H1174V342H637L494 -2H276L420 342Z"/><glyph unicode="≤" horiz-adv-x="1315" d="M117 672V819L1200 1208V995L422 745L1200 506V293L117 672ZM117 250H1200V59H117V250Z"/><glyph unicode="≥" horiz-adv-x="1315" d="M123 506L901 745L123 995V1208L1206 819V672L123 293V506ZM123 250H1206V59H123V250Z"/><glyph unicode="◊" horiz-adv-x="1331" d="M92 758L565 1516H758L1239 758L766 0H565L92 758ZM991 758L666 1272L340 758L666 244L991 758Z"/><glyph unicode="✓" horiz-adv-x="1161" d="M412 -2L18 1087H283L549 285H553L963 1516H1206L668 -2H412Z"/><glyph unicode="" horiz-adv-x="1556" d="M330 309L285 305V498L344 494L356 664L20 623V889L356 848L342 1022L285 1018V1210L328 1206L326 1249H518L514 1192L686 1180L645 1516H911L870 1180L1042 1192L1038 1249H1231L1227 1206L1272 1210V1018L1212 1022L1200 848L1536 889V623L1200 664L1212 494L1272 498V305L1227 309L1231 262H1038L1042 324L870 336L911 0H645L686 336L514 324L518 262H326L330 309ZM686 848V1047L502 1034L489 848H686ZM870 1047V848H1067L1053 1034L870 1047ZM502 481L686 469V664H489L502 481ZM870 664V469L1055 481L1067 664H870Z"/><glyph unicode="ﬀ" horiz-adv-x="1411" d="M236 0V887H47V1087H236V1198Q236 1266 252 1325T307 1428T408 1497T561 1522Q581 1522 603 1521T644 1517T679 1514T702 1511V1319Q688 1322 666 1323T627 1325Q559 1325 523 1290T487 1184V1087H870V1188Q870 1256 886 1317T941 1423T1049 1495T1221 1522Q1239 1522 1262 1521T1308 1517T1347 1514T1372 1511V1317Q1365 1318 1355 1319T1332 1322T1308 1324T1286 1325Q1252 1325 1223 1320T1171 1298T1135 1255T1122 1184V1087H1360V887H1122V0H870V887H487V0H236Z"/><glyph unicode="ﬁ" horiz-adv-x="1284" d="M236 0V887H47V1087H236V1198Q236 1266 252 1325T307 1428T408 1497T561 1522Q579 1522 601 1521T643 1517T679 1514T702 1511V1317Q688 1320 666 1321T627 1323Q559 1323 523 1288T487 1182V1087H700V887H487V0H236ZM870 0V1087H1122V0H870ZM868 1266V1495H1124V1266H868Z"/><glyph unicode="ﬂ" horiz-adv-x="1278" d="M236 0V887H47V1087H236V1198Q236 1266 252 1325T307 1428T408 1497T561 1522Q579 1522 601 1521T643 1517T679 1514T702 1511V1317Q688 1320 666 1321T627 1323Q559 1323 523 1288T487 1182V1087H700V887H487V0H236ZM870 0V1516H1122V0H870Z"/><glyph unicode="ﬃ" horiz-adv-x="1903" d="M236 0V887H47V1087H236V1198Q236 1266 252 1325T307 1428T408 1497T561 1522Q581 1522 603 1521T644 1517T679 1514T702 1511V1317Q688 1320 666 1321T627 1323Q559 1323 523 1288T487 1182V1087H870V1186Q870 1254 887 1315T942 1422T1043 1495T1196 1522Q1214 1522 1235 1521T1276 1517T1312 1514T1335 1511V1317Q1323 1320 1301 1321T1260 1323Q1122 1323 1122 1182V1087H1333V887H1122V0H870V887H487V0H236ZM1503 0V1087H1755V0H1503ZM1501 1266V1495H1757V1266H1501Z"/><glyph unicode="ﬄ" horiz-adv-x="1903" d="M236 0V887H47V1087H236V1198Q236 1266 252 1325T307 1428T408 1497T561 1522Q581 1522 603 1521T644 1517T679 1514T702 1511V1317Q688 1320 666 1321T627 1323Q559 1323 523 1288T487 1182V1087H870V1186Q870 1254 887 1315T942 1422T1043 1495T1196 1522Q1214 1522 1235 1521T1276 1517T1312 1514T1335 1511V1317Q1323 1320 1301 1321T1260 1323Q1122 1323 1122 1182V1087H1333V887H1122V0H870V887H487V0H236ZM1503 0V1516H1755V0H1503Z"/></font>
</defs>
</svg>
